<svg width="44" height="44" viewBox="0 0 44 44" fill="none" xmlns="http://www.w3.org/2000/svg">
<path d="M22 44C9.8516 44 0 34.1484 0 22C0 9.8516 9.8516 0 22 0C34.1484 0 44 9.8516 44 22C44 34.1484 34.1484 44 22 44Z" fill="url(#paint0_linear_57_58136)"/>
<path d="M21.9999 9.68842C26.0083 9.68842 26.4835 9.70162 28.0675 9.77642C29.5327 9.84242 30.3291 10.0888 30.8571 10.2956C31.5567 10.5684 32.0583 10.894 32.5819 11.4176C33.1055 11.9412 33.4311 12.4428 33.7039 13.1424C33.9107 13.6704 34.1527 14.4668 34.2231 15.932C34.2935 17.516 34.3111 17.9912 34.3111 21.9996C34.3111 26.008 34.2979 26.4832 34.2231 28.0672C34.1571 29.5324 33.9107 30.3288 33.7039 30.8568C33.4311 31.5564 33.1055 32.058 32.5819 32.5816C32.0583 33.1052 31.5567 33.4308 30.8571 33.7036C30.3291 33.9104 29.5327 34.1524 28.0675 34.2228C26.4835 34.2932 26.0083 34.3108 21.9999 34.3108C17.9915 34.3108 17.5163 34.2976 15.9323 34.2228C14.4671 34.1568 13.6707 33.9104 13.1427 33.7036C12.4431 33.4308 11.9415 33.1052 11.4179 32.5816C10.8943 32.058 10.5687 31.5564 10.2959 30.8568C10.0891 30.3288 9.84707 29.5324 9.77667 28.0672C9.70627 26.4832 9.68867 26.008 9.68867 21.9996C9.68867 17.9912 9.70187 17.516 9.77667 15.932C9.84267 14.4668 10.0891 13.6704 10.2959 13.1424C10.5687 12.4428 10.8943 11.9412 11.4179 11.4176C11.9415 10.894 12.4431 10.5684 13.1427 10.2956C13.6707 10.0888 14.4671 9.84682 15.9323 9.77642C17.5163 9.70162 17.9915 9.68842 21.9999 9.68842ZM21.9999 6.98242C17.9211 6.98242 17.4107 7.00002 15.8091 7.07482C14.2119 7.14962 13.1207 7.40042 12.1615 7.77442C11.1759 8.15282 10.3355 8.66762 9.50387 9.50362C8.66787 10.3396 8.15747 11.1756 7.77027 12.1656C7.40067 13.1204 7.14547 14.2116 7.07067 15.8132C6.99587 17.4148 6.97827 17.9252 6.97827 22.004C6.97827 26.0828 6.99587 26.5932 7.07067 28.1948C7.14547 29.792 7.39627 30.8832 7.77027 31.8424C8.15307 32.8236 8.66787 33.664 9.50387 34.4956C10.3399 35.3316 11.1759 35.842 12.1659 36.2292C13.1207 36.5988 14.2119 36.854 15.8135 36.9288C17.4151 37.0036 17.9255 37.0212 22.0043 37.0212C26.0831 37.0212 26.5935 37.0036 28.1951 36.9288C29.7923 36.854 30.8835 36.6032 31.8427 36.2292C32.8239 35.8464 33.6643 35.3316 34.4959 34.4956C35.3319 33.6596 35.8423 32.8236 36.2295 31.8336C36.5991 30.8788 36.8543 29.7876 36.9291 28.186C37.0039 26.5844 37.0215 26.074 37.0215 21.9952C37.0215 17.9164 37.0039 17.406 36.9291 15.8044C36.8543 14.2072 36.6035 13.116 36.2295 12.1568C35.8467 11.1756 35.3319 10.3352 34.4959 9.50362C33.6599 8.66762 32.8239 8.15722 31.8339 7.77002C30.8791 7.40042 29.7879 7.14522 28.1863 7.07042C26.5891 7.00002 26.0787 6.98242 21.9999 6.98242Z" fill="white"/>
<path d="M22.0001 14.2871C17.7409 14.2871 14.2869 17.7411 14.2869 22.0003C14.2869 26.2595 17.7409 29.7135 22.0001 29.7135C26.2593 29.7135 29.7133 26.2595 29.7133 22.0003C29.7133 17.7411 26.2593 14.2871 22.0001 14.2871ZM22.0001 27.0075C19.2369 27.0075 16.9929 24.7679 16.9929 22.0003C16.9929 19.2327 19.2369 16.9931 22.0001 16.9931C24.7633 16.9931 27.0073 19.2327 27.0073 22.0003C27.0073 24.7679 24.7633 27.0075 22.0001 27.0075Z" fill="white"/>
<path d="M30.0166 15.7877C31.013 15.7877 31.8206 14.98 31.8206 13.9837C31.8206 12.9874 31.013 12.1797 30.0166 12.1797C29.0203 12.1797 28.2126 12.9874 28.2126 13.9837C28.2126 14.98 29.0203 15.7877 30.0166 15.7877Z" fill="white"/>
<defs>
<linearGradient id="paint0_linear_57_58136" x1="6.44367" y1="37.5564" x2="37.5564" y2="6.44367" gradientUnits="userSpaceOnUse">
<stop stop-color="#FFD521"/>
<stop offset="0.0551048" stop-color="#FFD020"/>
<stop offset="0.1241" stop-color="#FEC01E"/>
<stop offset="0.2004" stop-color="#FCA71B"/>
<stop offset="0.2821" stop-color="#FA8316"/>
<stop offset="0.3681" stop-color="#F85510"/>
<stop offset="0.4563" stop-color="#F51E09"/>
<stop offset="0.5" stop-color="#F30005"/>
<stop offset="0.5035" stop-color="#F20007"/>
<stop offset="0.5966" stop-color="#E1003B"/>
<stop offset="0.6879" stop-color="#D30067"/>
<stop offset="0.7757" stop-color="#C70088"/>
<stop offset="0.8589" stop-color="#BF00A0"/>
<stop offset="0.9357" stop-color="#BB00AF"/>
<stop offset="1" stop-color="#B900B4"/>
</linearGradient>
</defs>
</svg>
