<svg width="175" height="37" viewBox="0 0 175 37" fill="none" xmlns="http://www.w3.org/2000/svg">
<path d="M77.33 34.0137C74.6753 34.0137 72.396 33.5444 70.4922 32.6059C68.5883 31.6673 67.033 30.4473 65.8263 28.9456C64.6465 27.444 63.775 25.8082 63.2119 24.0385C62.6487 22.2687 62.3672 20.5659 62.3672 18.9302V18.0453C62.3672 16.2219 62.6487 14.4252 63.2119 12.6554C63.8018 10.8857 64.7001 9.27675 65.9068 7.82873C67.1135 6.38072 68.6419 5.22767 70.4922 4.36958C72.3692 3.48469 74.5815 3.04224 77.1289 3.04224C79.7836 3.04224 82.0897 3.52491 84.0472 4.49025C86.0315 5.42878 87.6136 6.76953 88.7935 8.51252C89.9733 10.2287 90.6839 12.2398 90.9253 14.5459H85.1734C84.9589 13.2052 84.4762 12.0789 83.7254 11.1672C83.0014 10.2287 82.0763 9.53149 80.95 9.07563C79.8238 8.59296 78.5501 8.35163 77.1289 8.35163C75.6809 8.35163 74.3938 8.60637 73.2675 9.11585C72.1413 9.59853 71.2028 10.2957 70.4519 11.2074C69.7011 12.1191 69.1246 13.1917 68.7224 14.4252C68.347 15.6587 68.1592 17.0263 68.1592 18.528C68.1592 19.976 68.347 21.3167 68.7224 22.5502C69.1246 23.7837 69.7145 24.8697 70.4922 25.8082C71.2698 26.72 72.2217 27.4306 73.348 27.94C74.501 28.4495 75.8284 28.7043 77.33 28.7043C79.5288 28.7043 81.3791 28.168 82.8807 27.0954C84.4092 25.996 85.3343 24.4675 85.6561 22.51H91.4079C91.1398 24.6016 90.4292 26.5188 89.2761 28.2618C88.1231 30.0048 86.541 31.3992 84.5299 32.445C82.5187 33.4908 80.1188 34.0137 77.33 34.0137Z" fill="white"/>
<path d="M94.0557 33.2494V3.88691H99.6467V33.2494H94.0557ZM91.3206 8.07007V3.88691H99.6467V8.07007H91.3206Z" fill="white"/>
<path d="M114.516 34.0137C112.586 34.0137 110.883 33.7053 109.408 33.0885C107.933 32.4718 106.686 31.6405 105.667 30.5947C104.649 29.5221 103.871 28.3155 103.335 26.9747C102.825 25.6339 102.57 24.2396 102.57 22.7915V21.9469C102.57 20.4452 102.838 19.024 103.375 17.6833C103.938 16.3157 104.729 15.109 105.748 14.0632C106.794 12.9906 108.054 12.1594 109.529 11.5694C111.004 10.9527 112.666 10.6443 114.516 10.6443C116.367 10.6443 118.029 10.9527 119.504 11.5694C120.979 12.1594 122.226 12.9906 123.245 14.0632C124.291 15.109 125.082 16.3157 125.618 17.6833C126.154 19.024 126.422 20.4452 126.422 21.9469V22.7915C126.422 24.2396 126.154 25.6339 125.618 26.9747C125.108 28.3155 124.344 29.5221 123.325 30.5947C122.306 31.6405 121.059 32.4718 119.585 33.0885C118.11 33.7053 116.42 34.0137 114.516 34.0137ZM114.516 29.2272C115.884 29.2272 117.037 28.9322 117.976 28.3423C118.914 27.7255 119.625 26.9077 120.107 25.8887C120.59 24.8429 120.831 23.663 120.831 22.3491C120.831 21.0083 120.577 19.8285 120.067 18.8095C119.585 17.7637 118.861 16.9459 117.895 16.3559C116.957 15.7392 115.83 15.4308 114.516 15.4308C113.203 15.4308 112.063 15.7392 111.098 16.3559C110.159 16.9459 109.435 17.7637 108.926 18.8095C108.416 19.8285 108.161 21.0083 108.161 22.3491C108.161 23.663 108.403 24.8429 108.885 25.8887C109.395 26.9077 110.119 27.7255 111.057 28.3423C111.996 28.9322 113.149 29.2272 114.516 29.2272Z" fill="white"/>
<path d="M136.748 33.9332C134.227 33.9332 132.27 33.102 130.875 31.4394C129.508 29.7769 128.824 27.3099 128.824 24.0385V11.3683H134.415V24.5211C134.415 25.8619 134.79 26.9345 135.541 27.7389C136.292 28.5166 137.311 28.9054 138.598 28.9054C139.885 28.9054 140.931 28.4898 141.736 27.6585C142.567 26.8272 142.982 25.701 142.982 24.2798V11.3683H148.573V33.2494H144.149V23.958H144.591C144.591 26.1568 144.31 27.9937 143.747 29.4685C143.184 30.9433 142.339 32.0562 141.213 32.807C140.086 33.5578 138.679 33.9332 136.989 33.9332H136.748Z" fill="white"/>
<path d="M162.035 33.9734C160.506 33.9734 159.099 33.6919 157.811 33.1288C156.524 32.5656 155.411 31.7746 154.473 30.7556C153.534 29.7367 152.81 28.5568 152.301 27.216C151.791 25.8485 151.537 24.3736 151.537 22.7915V21.9469C151.537 20.3916 151.778 18.9302 152.261 17.5626C152.77 16.195 153.467 15.0018 154.352 13.9828C155.264 12.9638 156.35 12.1728 157.61 11.6097C158.897 11.0197 160.319 10.7248 161.874 10.7248C163.59 10.7248 165.092 11.1002 166.379 11.851C167.693 12.575 168.739 13.6744 169.516 15.1493C170.294 16.6241 170.723 18.4743 170.803 20.7L169.154 18.7693V3.88691H174.745V33.2494H170.321V23.958H171.286C171.206 26.1837 170.75 28.0473 169.918 29.549C169.087 31.0238 167.988 32.1366 166.62 32.8874C165.279 33.6114 163.751 33.9734 162.035 33.9734ZM163.282 29.2674C164.381 29.2674 165.387 29.0261 166.298 28.5434C167.21 28.0339 167.934 27.3099 168.47 26.3714C169.034 25.406 169.315 24.2798 169.315 22.9927V21.3838C169.315 20.0966 169.034 19.024 168.47 18.1659C167.907 17.281 167.17 16.6107 166.258 16.1548C165.346 15.6721 164.354 15.4308 163.282 15.4308C162.075 15.4308 161.002 15.7258 160.064 16.3157C159.152 16.8788 158.428 17.6833 157.892 18.7291C157.382 19.7749 157.128 20.9949 157.128 22.3893C157.128 23.7837 157.396 25.0038 157.932 26.0496C158.468 27.0686 159.192 27.8596 160.104 28.4227C161.043 28.9858 162.102 29.2674 163.282 29.2674Z" fill="white"/>
<path d="M41.3018 36.3365C39.3701 36.3365 38.1798 35.4446 36.2354 34.3943C34.2909 33.344 28.667 29.115 28.667 23.8509C28.667 20.2798 27.7464 17.3915 26.1788 15.0896C24.6227 12.8055 22.5148 11.223 20.3218 10.1059C19.2651 9.56768 18.1654 9.12757 17.0703 8.76381C16.4319 8.55189 16.0615 7.86647 16.3385 7.25363C18.094 3.36726 22.0036 0.66333 26.5451 0.66333C32.7273 0.66333 37.7392 5.67493 37.7392 11.8573C37.7392 13.18 37.5098 14.4492 37.0886 15.627C38.8728 14.4245 41.0225 13.7229 43.336 13.7229C49.5181 13.7229 54.53 18.7345 54.53 24.9169C54.53 32.3595 47.99 36.3365 41.3018 36.3365Z" fill="white"/>
<path d="M0.425781 23.9841C0.425781 29.8846 4.31592 34.801 9.46948 35.8873C10.2649 36.1779 11.1237 36.3365 12.0195 36.3365H29.4116C29.9949 36.3365 30.2489 35.5564 29.8036 35.1796C26.764 32.6077 24.5051 28.9832 24.5051 23.8509C24.5051 21.0308 23.791 18.9769 22.7389 17.4327C21.6749 15.8709 20.1784 14.7035 18.4328 13.814C16.6709 12.9167 14.758 12.3451 12.9314 11.9398C12.5012 11.8855 12.0634 11.8573 11.6198 11.8573C5.43738 11.8573 0.425781 17.2867 0.425781 23.9841Z" fill="white"/>
</svg>
