<svg width="212" height="57" viewBox="0 0 212 57" fill="none" xmlns="http://www.w3.org/2000/svg">
<path d="M78.7143 45.6407C75.3699 45.6407 72.4477 44.8806 69.9479 43.3604C67.448 41.8403 65.5056 39.7289 64.1205 37.0264C62.7355 34.29 62.043 31.1146 62.043 27.4999C62.043 23.8515 62.7524 20.6422 64.1712 17.8721C65.6238 15.0682 67.6676 12.8893 70.3026 11.3353C72.9714 9.74759 76.13 8.95372 79.7784 8.95372C83.9335 8.95372 87.3793 9.95028 90.1156 11.9434C92.8519 13.9365 94.6255 16.6897 95.4362 20.203H88.19C87.6495 18.5477 86.6699 17.264 85.251 16.3519C83.8322 15.406 82.008 14.9331 79.7784 14.9331C76.2313 14.9331 73.495 16.0648 71.5694 18.3282C69.6439 20.5578 68.6811 23.6319 68.6811 27.5506C68.6811 31.4693 69.627 34.5096 71.5188 36.6716C73.4443 38.7999 76.0455 39.864 79.3223 39.864C82.5316 39.864 84.947 39.0026 86.5685 37.2797C88.2238 35.5231 89.2204 33.2259 89.5582 30.3882H80.5891V25.5237H96.095V45.0326H90.1156L89.6089 40.3708C88.4603 42.0598 87.0246 43.3604 85.3017 44.2725C83.5788 45.1847 81.383 45.6407 78.7143 45.6407Z" fill="white"/>
<path d="M99.7149 45.0326V8.54834H106.201V45.0326H99.7149Z" fill="white"/>
<path d="M122.355 45.6407C119.923 45.6407 117.727 45.0833 115.767 43.9685C113.842 42.8537 112.305 41.3166 111.156 39.3573C110.041 37.3642 109.484 35.067 109.484 32.4658C109.484 29.8646 110.058 27.5844 111.207 25.625C112.355 23.6319 113.893 22.0779 115.818 20.9631C117.777 19.8483 119.973 19.2909 122.406 19.2909C124.804 19.2909 126.966 19.8483 128.892 20.9631C130.851 22.0779 132.388 23.6319 133.503 25.625C134.651 27.5844 135.226 29.8646 135.226 32.4658C135.226 35.067 134.651 37.3642 133.503 39.3573C132.388 41.3166 130.851 42.8537 128.892 43.9685C126.932 45.0833 124.753 45.6407 122.355 45.6407ZM122.355 40.016C124.044 40.016 125.513 39.3911 126.763 38.1412C128.013 36.8574 128.638 34.9657 128.638 32.4658C128.638 29.966 128.013 28.0911 126.763 26.8412C125.513 25.5575 124.061 24.9156 122.406 24.9156C120.683 24.9156 119.196 25.5575 117.946 26.8412C116.73 28.0911 116.122 29.966 116.122 32.4658C116.122 34.9657 116.73 36.8574 117.946 38.1412C119.196 39.3911 120.666 40.016 122.355 40.016Z" fill="white"/>
<path d="M148.879 45.6407C146.65 45.6407 144.69 45.286 143.001 44.5766C141.312 43.8334 139.961 42.8199 138.947 41.5362C137.934 40.2525 137.326 38.7661 137.123 37.077H143.66C143.863 38.0567 144.403 38.9012 145.281 39.6107C146.194 40.2863 147.359 40.6241 148.778 40.6241C150.197 40.6241 151.227 40.337 151.869 39.7627C152.545 39.1884 152.882 38.5296 152.882 37.7864C152.882 36.7054 152.409 35.9791 151.464 35.6075C150.518 35.2021 149.2 34.8137 147.511 34.4421C146.43 34.2056 145.332 33.9184 144.217 33.5806C143.103 33.2428 142.072 32.8205 141.126 32.3138C140.214 31.7733 139.471 31.0977 138.897 30.2869C138.322 29.4424 138.035 28.412 138.035 27.1959C138.035 24.9663 138.914 23.0914 140.67 21.5712C142.461 20.051 144.961 19.2909 148.17 19.2909C151.143 19.2909 153.507 19.9835 155.264 21.3685C157.054 22.7536 158.119 24.6622 158.456 27.0945H152.325C151.953 25.2365 150.551 24.3075 148.119 24.3075C146.903 24.3075 145.957 24.544 145.281 25.0169C144.64 25.4899 144.319 26.0811 144.319 26.7905C144.319 27.5337 144.809 28.1249 145.788 28.564C146.768 29.0032 148.068 29.4086 149.69 29.7802C151.447 30.1856 153.051 30.6416 154.504 31.1483C155.99 31.6213 157.173 32.3476 158.051 33.3273C158.929 34.2731 159.368 35.6413 159.368 37.4317C159.402 38.9857 158.997 40.3876 158.152 41.6376C157.308 42.8875 156.092 43.8672 154.504 44.5766C152.916 45.286 151.041 45.6407 148.879 45.6407Z" fill="white"/>
<path d="M172.969 45.6407C170.739 45.6407 168.78 45.286 167.09 44.5766C165.401 43.8334 164.05 42.8199 163.037 41.5362C162.023 40.2525 161.415 38.7661 161.212 37.077H167.749C167.952 38.0567 168.492 38.9012 169.371 39.6107C170.283 40.2863 171.448 40.6241 172.867 40.6241C174.286 40.6241 175.316 40.337 175.958 39.7627C176.634 39.1884 176.972 38.5296 176.972 37.7864C176.972 36.7054 176.499 35.9791 175.553 35.6075C174.607 35.2021 173.289 34.8137 171.6 34.4421C170.519 34.2056 169.421 33.9184 168.307 33.5806C167.192 33.2428 166.161 32.8205 165.216 32.3138C164.303 31.7733 163.56 31.0977 162.986 30.2869C162.412 29.4424 162.125 28.412 162.125 27.1959C162.125 24.9663 163.003 23.0914 164.76 21.5712C166.55 20.051 169.05 19.2909 172.259 19.2909C175.232 19.2909 177.597 19.9835 179.353 21.3685C181.144 22.7536 182.208 24.6622 182.546 27.0945H176.414C176.043 25.2365 174.641 24.3075 172.208 24.3075C170.992 24.3075 170.046 24.544 169.371 25.0169C168.729 25.4899 168.408 26.0811 168.408 26.7905C168.408 27.5337 168.898 28.1249 169.877 28.564C170.857 29.0032 172.158 29.4086 173.779 29.7802C175.536 30.1856 177.141 30.6416 178.593 31.1483C180.08 31.6213 181.262 32.3476 182.14 33.3273C183.019 34.2731 183.458 35.6413 183.458 37.4317C183.492 38.9857 183.086 40.3876 182.242 41.6376C181.397 42.8875 180.181 43.8672 178.593 44.5766C177.005 45.286 175.131 45.6407 172.969 45.6407Z" fill="white"/>
<path d="M188.476 56.1806L194.303 43.3604H192.783L183.003 19.899H190.046L197.09 37.5838L204.437 19.899H211.329L195.367 56.1806H188.476Z" fill="white"/>
<path d="M14.3016 40.9727L39.8674 15.4069L35.6633 11.2028L10.0975 36.7686L14.3016 40.9727Z" fill="white"/>
<path d="M24.409 15.4069L14.3016 25.5143L10.0975 21.3102L20.2049 11.2028L24.409 15.4069Z" fill="white"/>
<path d="M29.76 40.9727L39.8674 30.8653L35.6633 26.6612L25.5559 36.7686L29.76 40.9727Z" fill="white"/>
<path fill-rule="evenodd" clip-rule="evenodd" d="M0.308594 50.7617V0.819336H50.251V50.7617H0.308594ZM6.25412 6.76486H44.3055V44.8162H6.25412V6.76486Z" fill="white"/>
</svg>
