
<svg width="216" height="53" viewBox="0 0 216 53" fill="none" xmlns="http://www.w3.org/2000/svg">
<path d="M98.1585 40.4025C96.2803 40.4025 94.5329 40.0816 92.9162 39.4397C91.3233 38.774 89.9206 37.8468 88.708 36.658C87.5193 35.4693 86.5921 34.0903 85.9264 32.5212C85.2607 30.9283 84.9278 29.2165 84.9278 27.3858C84.9278 25.5552 85.2607 23.8553 85.9264 22.2861C86.5921 20.6932 87.5193 19.3143 88.708 18.1493C89.8968 16.9843 91.2876 16.0809 92.8805 15.439C94.4972 14.7733 96.2447 14.4404 98.1229 14.4404C100.12 14.4404 101.891 14.7614 103.437 15.4033C104.763 15.9459 105.945 16.6583 106.982 17.5406C107.296 17.8072 107.3 18.2818 107.011 18.5741L104.332 21.2783C104.038 21.5753 103.558 21.5647 103.24 21.2932C102.694 20.8268 102.07 20.4446 101.368 20.1464C100.441 19.7422 99.3592 19.5401 98.1229 19.5401C97.0292 19.5401 96.0188 19.7303 95.0916 20.1107C94.1881 20.4673 93.4036 20.9904 92.7379 21.6799C92.096 22.3693 91.5848 23.2015 91.2044 24.1762C90.8478 25.151 90.6695 26.2209 90.6695 27.3858C90.6695 28.5746 90.8478 29.6563 91.2044 30.6311C91.5848 31.6059 92.096 32.438 92.7379 33.1275C93.4036 33.8169 94.1881 34.3519 95.0916 34.7323C96.0188 35.1126 97.0292 35.3029 98.1229 35.3029C99.4067 35.3029 100.524 35.1008 101.475 34.6966C102.186 34.3945 102.824 34.0061 103.388 33.5314C103.703 33.2664 104.174 33.2591 104.466 33.5502L107.173 36.2581C107.469 36.5541 107.461 37.0386 107.138 37.3046C106.067 38.1859 104.869 38.8975 103.544 39.4397C101.998 40.0816 100.203 40.4025 98.1585 40.4025Z" fill="white"/>
<path d="M78.2835 40.0103C77.8767 40.0103 77.5469 39.6805 77.5469 39.2737V15.5693C77.5469 15.1625 77.8767 14.8327 78.2835 14.8327H82.4093C82.8161 14.8327 83.1458 15.1625 83.1458 15.5693V39.2737C83.1458 39.6805 82.8161 40.0103 82.4093 40.0103H78.2835Z" fill="white"/>
<path d="M109.016 39.2737C109.016 39.6805 109.346 40.0103 109.753 40.0103H113.878C113.904 40.0103 113.93 40.0089 113.955 40.0063C113.981 40.0089 114.006 40.0103 114.032 40.0103H126.36C126.767 40.0103 127.097 39.6805 127.097 39.2737V35.8968C127.097 35.49 126.767 35.1602 126.36 35.1602H114.615V29.4899H125.112C125.519 29.4899 125.849 29.1601 125.849 28.7533V25.5547C125.849 25.1479 125.519 24.8181 125.112 24.8181H114.615V19.6471H126.182C126.589 19.6471 126.918 19.3173 126.918 18.9105V15.5693C126.918 15.1625 126.589 14.8327 126.182 14.8327H114.032C114.006 14.8327 113.981 14.8341 113.955 14.8367C113.93 14.8341 113.904 14.8327 113.878 14.8327H109.753C109.346 14.8327 109.016 15.1625 109.016 15.5693V39.2737Z" fill="white"/>
<path fill-rule="evenodd" clip-rule="evenodd" d="M134.19 40.0103C134.151 40.0103 134.114 40.0073 134.077 40.0017C134.04 40.0073 134.003 40.0103 133.965 40.0103H129.91C129.503 40.0103 129.174 39.6805 129.174 39.2737V15.5693C129.174 15.1625 129.503 14.8327 129.91 14.8327H133.965C134.003 14.8327 134.04 14.8356 134.077 14.8413C134.114 14.8356 134.151 14.8327 134.19 14.8327H139.979C141.596 14.8327 142.963 15.1299 144.08 15.7243C145.222 16.3186 146.089 17.1151 146.684 18.1136C147.278 19.1122 147.575 20.2177 147.575 21.4302C147.575 22.9756 147.076 24.2832 146.077 25.3531C145.647 25.814 145.129 26.2131 144.522 26.5505C145.373 26.9673 146.094 27.4954 146.684 28.1347C147.849 29.371 148.431 30.8926 148.431 32.6995C148.431 34.0784 148.086 35.3266 147.397 36.444C146.731 37.5377 145.757 38.4055 144.473 39.0474C143.213 39.6893 141.691 40.0103 139.908 40.0103H134.19ZM134.701 35.6595H139.373C140.467 35.6595 141.323 35.3385 141.941 34.6966C142.559 34.0547 142.868 33.2701 142.868 32.3429C142.868 31.701 142.725 31.1304 142.44 30.6311C142.155 30.1318 141.75 29.7395 141.227 29.4542C140.728 29.1689 140.11 29.0263 139.373 29.0263H134.701V35.6595ZM138.909 24.7825H134.701V19.1835H138.909C139.837 19.1835 140.585 19.4213 141.156 19.8968C141.727 20.3485 142.012 21.0379 142.012 21.9652C142.012 22.9162 141.727 23.6294 141.156 24.1049C140.585 24.5566 139.837 24.7825 138.909 24.7825Z" fill="white"/>
<path d="M150.237 39.2737C150.237 39.6805 150.566 40.0103 150.973 40.0103H155.099C155.125 40.0103 155.151 40.0089 155.176 40.0063C155.201 40.0089 155.227 40.0103 155.253 40.0103H167.581C167.988 40.0103 168.317 39.6805 168.317 39.2737V35.8968C168.317 35.49 167.988 35.1602 167.581 35.1602H155.836V29.4899H166.333C166.739 29.4899 167.069 29.1601 167.069 28.7533V25.5547C167.069 25.1479 166.739 24.8181 166.333 24.8181H155.836V19.6471H167.402C167.809 19.6471 168.139 19.3173 168.139 18.9105V15.5693C168.139 15.1625 167.809 14.8327 167.402 14.8327H155.253C155.227 14.8327 155.201 14.8341 155.176 14.8367C155.151 14.8341 155.125 14.8327 155.099 14.8327H150.973C150.566 14.8327 150.237 15.1625 150.237 15.5693V39.2737Z" fill="white"/>
<path fill-rule="evenodd" clip-rule="evenodd" d="M175.993 39.2737V29.6326H176.728C176.734 29.7703 176.778 29.9092 176.868 30.0329L183.868 39.7055C184.006 39.8969 184.228 40.0103 184.465 40.0103H189.232C189.842 40.0103 190.188 39.3113 189.817 38.8266L182.656 29.4513C183.513 29.2988 184.299 29.0502 185.016 28.7053C186.299 28.0872 187.298 27.2313 188.011 26.1376C188.725 25.0202 189.081 23.7245 189.081 22.2505C189.081 20.8002 188.725 19.5164 188.011 18.3989C187.298 17.2815 186.311 16.4137 185.051 15.7956C183.791 15.1537 182.329 14.8327 180.665 14.8327H175.41C175.384 14.8327 175.359 14.8341 175.333 14.8367C175.308 14.8341 175.282 14.8327 175.257 14.8327H171.131C170.724 14.8327 170.394 15.1625 170.394 15.5693V39.2737C170.394 39.6805 170.724 40.0103 171.131 40.0103H175.257C175.663 40.0103 175.993 39.6805 175.993 39.2737ZM179.987 25.4957H175.993V19.1835H180.023C181.14 19.1835 181.996 19.4807 182.591 20.0751C183.185 20.6694 183.482 21.4183 183.482 22.3218C183.482 23.2966 183.173 24.0692 182.555 24.6398C181.961 25.2104 181.105 25.4957 179.987 25.4957Z" fill="white"/>
<path d="M197.988 39.404C199.604 40.0697 201.328 40.4025 203.159 40.4025C205.655 40.4025 207.854 39.8795 209.756 38.8334C211.682 37.7873 213.18 36.242 214.249 34.1973C215.343 32.1289 215.89 29.585 215.89 26.5656V26.4819C215.89 26.0751 215.56 25.7454 215.153 25.7454H203.396C202.989 25.7454 202.659 26.0751 202.659 26.4819V29.7635C202.659 30.1657 202.982 30.4936 203.384 30.5L209.893 30.6033C209.754 31.1272 209.566 31.612 209.328 32.0576C208.781 33.1037 207.985 33.912 206.939 34.4826C205.916 35.0294 204.668 35.3029 203.194 35.3029C201.744 35.3029 200.46 34.97 199.343 34.3043C198.225 33.6386 197.346 32.7114 196.704 31.5226C196.062 30.3339 195.741 28.955 195.741 27.3858C195.741 25.8167 196.062 24.4496 196.704 23.2847C197.369 22.0959 198.285 21.1806 199.45 20.5387C200.615 19.873 201.934 19.5401 203.408 19.5401C204.787 19.5401 206.023 19.8017 207.117 20.3247C207.976 20.7353 208.746 21.3071 209.429 22.0401C209.732 22.365 210.248 22.4005 210.562 22.0865L213.307 19.3414C213.578 19.0707 213.598 18.6358 213.334 18.3585C212.247 17.2174 210.924 16.3036 209.364 15.6173C207.604 14.8327 205.643 14.4404 203.479 14.4404C201.601 14.4404 199.842 14.7733 198.201 15.439C196.561 16.0809 195.123 16.9962 193.886 18.185C192.674 19.3499 191.723 20.717 191.033 22.2861C190.344 23.8553 189.999 25.5552 189.999 27.3858C189.999 29.2165 190.332 30.9283 190.998 32.5212C191.687 34.0903 192.626 35.4693 193.815 36.658C195.004 37.823 196.395 38.7383 197.988 39.404Z" fill="white"/>
<path d="M3.88093 5.86437C0.726562 9.87548 0.726562 15.7464 0.726562 27.4881C0.726562 39.2299 0.726562 45.1008 3.88093 49.1119C4.60483 50.0324 5.43581 50.8634 6.35631 51.5873C6.70862 51.8644 7.07527 52.1171 7.45898 52.3476L22.986 18.0671C23.661 16.5769 25.3706 15.8586 26.9074 16.4197L36.7743 20.0219C37.7064 20.3622 38.4216 21.1245 38.7019 22.0764L47.7382 52.7658C48.4069 52.4324 49.0248 52.0427 49.6039 51.5873C50.5244 50.8634 51.3553 50.0324 52.0792 49.1119C55.2336 45.1008 55.2336 39.2299 55.2336 27.4881C55.2336 15.7464 55.2336 9.87548 52.0792 5.86437C51.3553 4.94387 50.5244 4.11288 49.6039 3.38899C45.5928 0.234619 39.7219 0.234619 27.9801 0.234619C16.2383 0.234619 10.3674 0.234619 6.35631 3.38899C5.43581 4.11288 4.60483 4.94387 3.88093 5.86437Z" fill="white"/>
</svg>
