<svg width="188" height="49" viewBox="0 0 188 49" fill="none" xmlns="http://www.w3.org/2000/svg">
<path d="M13.9805 35.7153H36.5932V44.5638C36.5932 46.7358 34.8325 48.4965 32.6606 48.4965H17.9131C15.7412 48.4965 13.9805 46.7358 13.9805 44.5638V35.7153Z" fill="white"/>
<path fill-rule="evenodd" clip-rule="evenodd" d="M19.8692 0.998063C14.4848 2.09417 9.74041 4.95053 6.26296 8.94009C6.26283 8.94001 6.26308 8.94017 6.26296 8.94009C2.49882 13.2584 0.21875 18.9043 0.21875 25.0828V25.9403C0.218944 25.94 0.219137 25.9396 0.219331 25.9392V26.8405C0.219331 27.0342 0.219331 27.131 0.22128 27.2129C0.308703 30.8854 3.26514 33.8419 6.9377 33.9293C7.01958 33.9312 7.11639 33.9312 7.31002 33.9312H42.2868C42.4805 33.9312 42.5773 33.9312 42.6592 33.9293C46.3317 33.8419 49.2882 30.8854 49.3756 27.2129C49.3775 27.131 49.3775 27.0342 49.3775 26.8405V25.0828C49.3775 11.5081 38.3731 0.503662 24.7984 0.503662C23.1104 0.503662 21.4615 0.673947 19.8692 0.998063C19.8692 0.998102 19.8692 0.998024 19.8692 0.998063ZM19.7472 3.03627C19.0146 7.18433 15.3922 10.3352 11.034 10.3352C10.0049 10.3352 9.01686 10.1596 8.0982 9.83657C11.1477 6.49815 15.1848 4.07727 19.7472 3.03627ZM31.9393 3.62065C32.8941 7.47668 36.3776 10.3352 40.5288 10.3352C40.9797 10.3352 41.4226 10.3015 41.8554 10.2364C39.2295 7.22215 35.8177 4.91045 31.9393 3.62065ZM47.3455 23.3458C45.788 21.9788 43.7463 21.15 41.5111 21.15C36.6242 21.15 32.6626 25.1116 32.6626 29.9985C32.6626 30.6743 32.7384 31.3325 32.8819 31.9649H42.2868C42.4918 31.9649 42.5598 31.9648 42.6124 31.9635C45.2356 31.9011 47.3474 29.7893 47.4098 27.1661C47.4111 27.1135 47.4112 27.0455 47.4112 26.8405V25.0828C47.4112 24.4983 47.389 23.9191 47.3455 23.3458ZM16.713 31.9649C16.8566 31.3325 16.9323 30.6743 16.9323 29.9985C16.9323 25.1116 12.9707 21.15 8.08385 21.15C5.84961 21.15 3.80878 21.9781 2.25151 23.344C2.20788 23.9179 2.18566 24.4977 2.18566 25.0828V26.8405C2.18566 27.0455 2.1858 27.1135 2.18705 27.1661C2.2495 29.7893 4.36124 31.9011 6.98449 31.9635C7.03708 31.9648 7.10507 31.9649 7.31002 31.9649H16.713ZM33.6465 17.2174C33.6465 22.1043 29.6849 26.0659 24.798 26.0659C19.9111 26.0659 15.9495 22.1043 15.9495 17.2174C15.9495 12.3305 19.9111 8.36892 24.798 8.36892C29.6849 8.36892 33.6465 12.3305 33.6465 17.2174Z" fill="white"/>
<path d="M64.0703 37.3663V8.40601H69.2188V37.3663H64.0703Z" fill="white"/>
<path d="M82.162 37.849C80.1509 37.849 78.3677 37.4199 76.8124 36.5618C75.2571 35.7038 74.037 34.4971 73.1521 32.9418C72.2672 31.3865 71.8248 29.5899 71.8248 27.552C71.8248 25.4872 72.2538 23.6504 73.1119 22.0415C73.9968 20.4326 75.2035 19.1857 76.732 18.3008C78.2872 17.3891 80.1107 16.9332 82.2022 16.9332C84.1597 16.9332 85.8893 17.3622 87.391 18.2203C88.8926 19.0784 90.0591 20.2583 90.8903 21.7599C91.7484 23.2348 92.1774 24.8839 92.1774 26.7073C92.1774 27.0023 92.164 27.3106 92.1372 27.6324C92.1372 27.9542 92.1238 28.2894 92.097 28.638H76.9331C77.0403 30.1933 77.5766 31.4134 78.542 32.2983C79.5341 33.1831 80.7274 33.6256 82.1218 33.6256C83.1676 33.6256 84.0391 33.3977 84.7363 32.9418C85.4603 32.4591 85.9966 31.8424 86.3452 31.0916H91.5741C91.1987 32.3519 90.5685 33.5049 89.6836 34.5507C88.8256 35.5697 87.753 36.3741 86.4658 36.9641C85.2055 37.554 83.7709 37.849 82.162 37.849ZM82.2022 21.1164C80.9419 21.1164 79.8291 21.4784 78.8638 22.2024C77.8984 22.8996 77.2817 23.9722 77.0135 25.4202H86.9485C86.8681 24.1062 86.3854 23.0605 85.5005 22.2828C84.6156 21.5052 83.5162 21.1164 82.2022 21.1164Z" fill="white"/>
<path d="M99.1008 37.3663L91.7803 17.4159H97.1701L102.238 32.4994L107.306 17.4159H112.696L105.335 37.3663H99.1008Z" fill="white"/>
<path d="M122.644 37.849C120.633 37.849 118.85 37.4199 117.294 36.5618C115.739 35.7038 114.519 34.4971 113.634 32.9418C112.749 31.3865 112.307 29.5899 112.307 27.552C112.307 25.4872 112.736 23.6504 113.594 22.0415C114.479 20.4326 115.685 19.1857 117.214 18.3008C118.769 17.3891 120.593 16.9332 122.684 16.9332C124.642 16.9332 126.371 17.3622 127.873 18.2203C129.374 19.0784 130.541 20.2583 131.372 21.7599C132.23 23.2348 132.659 24.8839 132.659 26.7073C132.659 27.0023 132.646 27.3106 132.619 27.6324C132.619 27.9542 132.606 28.2894 132.579 28.638H117.415C117.522 30.1933 118.059 31.4134 119.024 32.2983C120.016 33.1831 121.209 33.6256 122.604 33.6256C123.649 33.6256 124.521 33.3977 125.218 32.9418C125.942 32.4591 126.478 31.8424 126.827 31.0916H132.056C131.681 32.3519 131.05 33.5049 130.166 34.5507C129.307 35.5697 128.235 36.3741 126.948 36.9641C125.687 37.554 124.253 37.849 122.644 37.849ZM122.684 21.1164C121.424 21.1164 120.311 21.4784 119.346 22.2024C118.38 22.8996 117.764 23.9722 117.495 25.4202H127.43C127.35 24.1062 126.867 23.0605 125.982 22.2828C125.097 21.5052 123.998 21.1164 122.684 21.1164Z" fill="white"/>
<path d="M134.978 37.3663V8.40601H140.127V37.3663H134.978Z" fill="white"/>
<path d="M150.858 37.849C148.364 37.849 146.433 37.0713 145.066 35.5161C143.725 33.9608 143.055 31.6815 143.055 28.6782V17.4159H148.163V28.1955C148.163 29.9117 148.512 31.2256 149.209 32.1374C149.906 33.0491 151.005 33.5049 152.507 33.5049C153.928 33.5049 155.095 32.9954 156.006 31.9765C156.945 30.9575 157.414 29.5363 157.414 27.7129V17.4159H162.563V37.3663H158.018L157.615 33.9876C156.999 35.1675 156.1 36.106 154.92 36.8032C153.767 37.5004 152.413 37.849 150.858 37.849Z" fill="white"/>
<path d="M165.837 46.2153V17.4159H170.422L170.985 20.2717C171.629 19.3868 172.473 18.6091 173.519 17.9388C174.592 17.2684 175.973 16.9332 177.662 16.9332C179.539 16.9332 181.215 17.3891 182.69 18.3008C184.165 19.2125 185.331 20.4594 186.189 22.0415C187.047 23.6236 187.476 25.4202 187.476 27.4313C187.476 29.4424 187.047 31.2391 186.189 32.8211C185.331 34.3764 184.165 35.6099 182.69 36.5216C181.215 37.4065 179.539 37.849 177.662 37.849C176.161 37.849 174.847 37.5674 173.72 37.0043C172.594 36.4412 171.682 35.6501 170.985 34.6312V46.2153H165.837ZM176.576 33.344C178.212 33.344 179.566 32.7943 180.639 31.6949C181.711 30.5955 182.248 29.1743 182.248 27.4313C182.248 25.6883 181.711 24.2537 180.639 23.1275C179.566 22.0013 178.212 21.4381 176.576 21.4381C174.914 21.4381 173.546 22.0013 172.473 23.1275C171.428 24.2269 170.905 25.6481 170.905 27.3911C170.905 29.1341 171.428 30.5687 172.473 31.6949C173.546 32.7943 174.914 33.344 176.576 33.344Z" fill="white"/>
</svg>
