<svg width="184" height="37" viewBox="0 0 184 37" fill="none" xmlns="http://www.w3.org/2000/svg">
<path d="M5.39337 4.78817C7.87564 2.41825 11.2462 1.03492 14.6624 0.862886C15.8315 0.862886 17.0042 0.869908 18.1734 0.859375C18.1137 2.1128 18.1734 3.36973 18.1382 4.62315C17.9732 7.42492 16.9375 10.1635 15.1925 12.3614C12.9244 15.3176 9.45558 17.3013 5.77256 17.8139C4.16453 18.0737 2.53192 17.9087 0.913354 17.9544C0.941441 16.5745 0.853667 15.1912 0.962507 13.8149C1.2785 10.4022 2.89004 7.13351 5.39337 4.78817Z" fill="white"/>
<path d="M19.2539 0.859131C20.5073 0.873175 21.7607 0.852109 23.0177 0.866153C26.146 1.08734 29.2321 2.2881 31.588 4.37012C34.1861 6.59959 35.9662 9.78757 36.4226 13.1932C36.6227 14.7732 36.4964 16.3707 36.5736 17.9576C35.4782 17.9541 34.3863 17.9506 33.2908 17.9576C30.5979 17.8839 27.9506 17.0132 25.6966 15.5456C24.6573 14.8013 23.59 14.0464 22.8105 13.0142C21.1007 11.1042 19.9385 8.70618 19.4997 6.17827C19.1696 4.42278 19.3031 2.63218 19.2539 0.859131Z" fill="white"/>
<path d="M0.915322 18.9612C2.0283 19.0244 3.1448 18.9085 4.25427 19.0314C9.00463 19.1332 13.6146 21.8016 16.0758 25.8638C17.4872 28.1389 18.2455 30.8353 18.1472 33.5142C18.1437 34.392 18.1578 35.2662 18.1332 36.1404C16.3707 36.0878 14.5906 36.2317 12.8456 35.8912C8.96952 35.2381 5.40587 32.9314 3.26066 29.6381C1.63507 27.2436 0.824037 24.3189 0.9083 21.4294C0.9083 20.6043 0.9083 19.7828 0.915322 18.9612Z" fill="white"/>
<path d="M30.6416 19.3336C32.5516 18.9087 34.5213 18.9789 36.4628 18.9789L36.5471 19.0632C36.505 20.8995 36.6489 22.7568 36.2803 24.5719C35.5043 28.6447 32.8079 32.2821 29.1811 34.2798C26.9235 35.5368 24.3324 36.1547 21.7518 36.1266C20.9267 36.1301 20.0981 36.1126 19.2731 36.1371C19.2731 34.6169 19.2099 33.0896 19.3819 31.5764C19.7821 27.9144 21.7623 24.5052 24.6098 22.202C26.3723 20.8117 28.4437 19.804 30.6416 19.3336Z" fill="white"/>
<path d="M50.9628 29.3401C50.9628 29.9582 50.7488 30.4812 50.3209 30.9091C49.9168 31.3133 49.4056 31.5153 48.7875 31.5153C48.1932 31.5153 47.694 31.3133 47.2898 30.9091C46.8857 30.4812 46.6836 29.9582 46.6836 29.3401V7.30221C46.6836 6.6841 46.8857 6.17298 47.2898 5.76883C47.7177 5.34091 48.2407 5.12695 48.8589 5.12695C49.477 5.12695 49.9762 5.34091 50.3566 5.76883C50.7607 6.17298 50.9628 6.6841 50.9628 7.30221V29.3401Z" fill="white"/>
<path d="M68.1384 12.4372C68.7565 12.4372 69.2676 12.6512 69.6717 13.0791C70.0759 13.4833 70.278 13.9944 70.278 14.6125V23.6701C70.278 26.1901 69.5766 28.1871 68.174 29.661C66.7714 31.135 64.7507 31.8719 62.1118 31.8719C59.473 31.8719 57.4523 31.135 56.0496 29.661C54.6708 28.1871 53.9814 26.1901 53.9814 23.6701V14.6125C53.9814 13.9944 54.1834 13.4833 54.5876 13.0791C54.9917 12.6512 55.5028 12.4372 56.121 12.4372C56.7391 12.4372 57.2502 12.6512 57.6543 13.0791C58.0585 13.4833 58.2606 13.9944 58.2606 14.6125V23.6701C58.2606 25.1203 58.5815 26.202 59.2234 26.9152C59.8652 27.6046 60.8281 27.9493 62.1118 27.9493C63.4194 27.9493 64.3941 27.6046 65.0359 26.9152C65.6778 26.202 65.9988 25.1203 65.9988 23.6701V14.6125C65.9988 13.9944 66.2008 13.4833 66.605 13.0791C67.0091 12.6512 67.5203 12.4372 68.1384 12.4372Z" fill="white"/>
<path d="M83.1481 12.0806C85.05 12.0806 86.4526 12.5442 87.356 13.4714C88.2594 14.3748 88.8537 15.5516 89.139 17.0017L88.5328 16.6808L88.8181 16.1102C89.1034 15.5634 89.5432 14.981 90.1375 14.3629C90.7318 13.721 91.445 13.1861 92.2771 12.7582C93.1329 12.3065 94.0839 12.0806 95.1299 12.0806C96.8416 12.0806 98.1372 12.4491 99.0168 13.1861C99.9202 13.9231 100.538 14.9097 100.871 16.1459C101.204 17.3583 101.37 18.7134 101.37 20.2111V29.3401C101.37 29.9582 101.168 30.4812 100.764 30.9091C100.36 31.3133 99.8489 31.5153 99.2308 31.5153C98.6127 31.5153 98.1016 31.3133 97.6974 30.9091C97.2933 30.4812 97.0912 29.9582 97.0912 29.3401V20.2111C97.0912 19.4266 96.9961 18.7253 96.8059 18.1072C96.6157 17.4653 96.271 16.9542 95.7718 16.5738C95.2725 16.1934 94.5593 16.0032 93.6322 16.0032C92.7288 16.0032 91.9562 16.1934 91.3143 16.5738C90.6724 16.9542 90.185 17.4653 89.8522 18.1072C89.5432 18.7253 89.3886 19.4266 89.3886 20.2111V29.3401C89.3886 29.9582 89.1866 30.4812 88.7824 30.9091C88.3783 31.3133 87.8672 31.5153 87.249 31.5153C86.6309 31.5153 86.1198 31.3133 85.7157 30.9091C85.3115 30.4812 85.1094 29.9582 85.1094 29.3401V20.2111C85.1094 19.4266 85.0144 18.7253 84.8242 18.1072C84.634 17.4653 84.2893 16.9542 83.79 16.5738C83.2908 16.1934 82.5776 16.0032 81.6504 16.0032C80.747 16.0032 79.9744 16.1934 79.3325 16.5738C78.6907 16.9542 78.2033 17.4653 77.8705 18.1072C77.5614 18.7253 77.4069 19.4266 77.4069 20.2111V29.3401C77.4069 29.9582 77.2048 30.4812 76.8007 30.9091C76.3965 31.3133 75.8854 31.5153 75.2673 31.5153C74.6492 31.5153 74.1381 31.3133 73.7339 30.9091C73.3298 30.4812 73.1277 29.9582 73.1277 29.3401V14.6125C73.1277 13.9944 73.3298 13.4833 73.7339 13.0791C74.1381 12.6512 74.6492 12.4372 75.2673 12.4372C75.8854 12.4372 76.3965 12.6512 76.8007 13.0791C77.2048 13.4833 77.4069 13.9944 77.4069 14.6125V16.1459L76.872 16.0389C77.086 15.6348 77.3831 15.2068 77.7635 14.7551C78.1439 14.2797 78.6074 13.8399 79.1542 13.4357C79.701 13.0316 80.3072 12.7106 80.9729 12.4729C81.6385 12.2114 82.3636 12.0806 83.1481 12.0806Z" fill="white"/>
<path d="M108.248 29.3401C108.248 29.9582 108.046 30.4812 107.642 30.9091C107.238 31.3133 106.727 31.5153 106.109 31.5153C105.491 31.5153 104.979 31.3133 104.575 30.9091C104.171 30.4812 103.969 29.9582 103.969 29.3401V14.6125C103.969 13.9944 104.171 13.4833 104.575 13.0791C104.979 12.6512 105.491 12.4372 106.109 12.4372C106.727 12.4372 107.238 12.6512 107.642 13.0791C108.046 13.4833 108.248 13.9944 108.248 14.6125V29.3401ZM106.073 10.1193C105.265 10.1193 104.694 9.9886 104.361 9.72709C104.029 9.46558 103.862 9.002 103.862 8.33635V7.65881C103.862 6.96939 104.04 6.50581 104.397 6.26807C104.777 6.00657 105.348 5.87581 106.109 5.87581C106.941 5.87581 107.523 6.00657 107.856 6.26807C108.189 6.52958 108.355 6.99316 108.355 7.65881V8.33635C108.355 9.02578 108.177 9.50124 107.82 9.76275C107.464 10.0005 106.881 10.1193 106.073 10.1193Z" fill="white"/>
<path d="M121.062 12.0806C122.821 12.0806 124.152 12.4491 125.056 13.1861C125.983 13.9231 126.613 14.9097 126.946 16.1459C127.302 17.3583 127.481 18.7134 127.481 20.2111V29.3401C127.481 29.9582 127.279 30.4812 126.875 30.9091C126.47 31.3133 125.959 31.5153 125.341 31.5153C124.723 31.5153 124.212 31.3133 123.808 30.9091C123.404 30.4812 123.202 29.9582 123.202 29.3401V20.2111C123.202 19.4266 123.095 18.7253 122.881 18.1072C122.69 17.4653 122.334 16.9542 121.811 16.5738C121.288 16.1934 120.539 16.0032 119.564 16.0032C118.613 16.0032 117.805 16.1934 117.139 16.5738C116.497 16.9542 115.998 17.4653 115.642 18.1072C115.309 18.7253 115.142 19.4266 115.142 20.2111V29.3401C115.142 29.9582 114.94 30.4812 114.536 30.9091C114.132 31.3133 113.621 31.5153 113.003 31.5153C112.385 31.5153 111.874 31.3133 111.469 30.9091C111.065 30.4812 110.863 29.9582 110.863 29.3401V14.6125C110.863 13.9944 111.065 13.4833 111.469 13.0791C111.874 12.6512 112.385 12.4372 113.003 12.4372C113.621 12.4372 114.132 12.6512 114.536 13.0791C114.94 13.4833 115.142 13.9944 115.142 14.6125V16.1459L114.607 16.0389C114.821 15.6348 115.131 15.2068 115.535 14.7551C115.939 14.2797 116.414 13.8399 116.961 13.4357C117.508 13.0316 118.126 12.7106 118.815 12.4729C119.505 12.2114 120.254 12.0806 121.062 12.0806Z" fill="white"/>
<path d="M148.652 21.9941C148.652 23.9435 148.212 25.6671 147.333 27.1648C146.477 28.6388 145.312 29.7918 143.838 30.6238C142.388 31.4559 140.759 31.8719 138.953 31.8719C137.146 31.8719 135.506 31.4559 134.032 30.6238C132.581 29.7918 131.417 28.6388 130.537 27.1648C129.681 25.6671 129.253 23.9435 129.253 21.9941C129.253 20.0447 129.681 18.333 130.537 16.8591C131.417 15.3614 132.581 14.1965 134.032 13.3644C135.506 12.5086 137.146 12.0806 138.953 12.0806C140.759 12.0806 142.388 12.5086 143.838 13.3644C145.312 14.1965 146.477 15.3614 147.333 16.8591C148.212 18.333 148.652 20.0447 148.652 21.9941ZM144.373 21.9941C144.373 20.7817 144.123 19.7357 143.624 18.856C143.149 17.9527 142.495 17.2513 141.663 16.7521C140.855 16.2529 139.951 16.0032 138.953 16.0032C137.954 16.0032 137.039 16.2529 136.207 16.7521C135.399 17.2513 134.745 17.9527 134.246 18.856C133.77 19.7357 133.532 20.7817 133.532 21.9941C133.532 23.1828 133.77 24.2288 134.246 25.1322C134.745 26.0118 135.399 26.7012 136.207 27.2005C137.039 27.6997 137.954 27.9493 138.953 27.9493C139.951 27.9493 140.855 27.6997 141.663 27.2005C142.495 26.7012 143.149 26.0118 143.624 25.1322C144.123 24.2288 144.373 23.1828 144.373 21.9941Z" fill="white"/>
<path d="M164.601 12.4372C165.219 12.4372 165.731 12.6512 166.135 13.0791C166.539 13.4833 166.741 13.9944 166.741 14.6125V23.6701C166.741 26.1901 166.04 28.1871 164.637 29.661C163.234 31.135 161.214 31.8719 158.575 31.8719C155.936 31.8719 153.915 31.135 152.513 29.661C151.134 28.1871 150.444 26.1901 150.444 23.6701V14.6125C150.444 13.9944 150.646 13.4833 151.051 13.0791C151.455 12.6512 151.966 12.4372 152.584 12.4372C153.202 12.4372 153.713 12.6512 154.117 13.0791C154.521 13.4833 154.724 13.9944 154.724 14.6125V23.6701C154.724 25.1203 155.045 26.202 155.686 26.9152C156.328 27.6046 157.291 27.9493 158.575 27.9493C159.882 27.9493 160.857 27.6046 161.499 26.9152C162.141 26.202 162.462 25.1203 162.462 23.6701V14.6125C162.462 13.9944 162.664 13.4833 163.068 13.0791C163.472 12.6512 163.983 12.4372 164.601 12.4372Z" fill="white"/>
<path d="M168.485 28.5556C168.248 28.2227 168.141 27.7948 168.164 27.2718C168.188 26.7488 168.497 26.2971 169.091 25.9167C169.472 25.679 169.876 25.5839 170.304 25.6314C170.732 25.6552 171.148 25.8692 171.552 26.2733C172.241 26.9627 172.967 27.4976 173.727 27.878C174.488 28.2584 175.439 28.4486 176.58 28.4486C176.937 28.4248 177.329 28.3773 177.757 28.3059C178.185 28.2108 178.553 28.0207 178.862 27.7354C179.195 27.4263 179.362 26.9627 179.362 26.3446C179.362 25.8216 179.183 25.4056 178.827 25.0965C178.47 24.7875 177.995 24.526 177.4 24.312C176.83 24.0981 176.188 23.896 175.475 23.7058C174.738 23.4918 173.977 23.2541 173.192 22.9926C172.432 22.7311 171.73 22.3983 171.088 21.9941C170.447 21.5662 169.924 21.0075 169.519 20.3181C169.115 19.6287 168.913 18.761 168.913 17.7149C168.913 16.5263 169.246 15.5159 169.912 14.6838C170.577 13.8518 171.433 13.2099 172.479 12.7582C173.549 12.3065 174.666 12.0806 175.831 12.0806C176.568 12.0806 177.341 12.1757 178.149 12.3659C178.957 12.5323 179.73 12.8176 180.467 13.2218C181.204 13.6021 181.822 14.1133 182.321 14.7551C182.583 15.1117 182.737 15.5397 182.785 16.0389C182.832 16.5381 182.607 16.9898 182.107 17.394C181.751 17.6793 181.335 17.81 180.859 17.7862C180.384 17.7387 179.992 17.5723 179.682 17.287C179.278 16.764 178.732 16.348 178.042 16.0389C177.376 15.7299 176.604 15.5753 175.724 15.5753C175.368 15.5753 174.975 15.6229 174.547 15.718C174.143 15.7893 173.787 15.9676 173.478 16.2529C173.169 16.5144 173.014 16.9423 173.014 17.5366C173.014 18.0834 173.192 18.5232 173.549 18.856C173.906 19.1651 174.381 19.4266 174.975 19.6406C175.593 19.8308 176.247 20.0209 176.937 20.2111C177.65 20.4013 178.375 20.6272 179.112 20.8887C179.849 21.1502 180.526 21.4949 181.145 21.9228C181.763 22.3507 182.262 22.9094 182.642 23.5988C183.023 24.2645 183.213 25.1203 183.213 26.1663C183.213 27.3788 182.856 28.4129 182.143 29.2688C181.43 30.1246 180.538 30.7784 179.469 31.2301C178.399 31.658 177.305 31.8719 176.188 31.8719C174.785 31.8719 173.383 31.6342 171.98 31.1587C170.577 30.6595 169.412 29.7918 168.485 28.5556Z" fill="white"/>
</svg>
