<svg width="233" height="55" viewBox="0 0 233 55" fill="none" xmlns="http://www.w3.org/2000/svg">
<path d="M69.1018 14.9966C71.3128 14.9966 73.2265 15.3651 74.8431 16.102C76.4835 16.839 77.7435 17.885 78.6231 19.2401C79.5027 20.5952 79.9425 22.1999 79.9425 24.0542C79.9425 25.8848 79.5027 27.4895 78.6231 28.8683C77.7435 30.2234 76.4835 31.2694 74.8431 32.0064C73.2265 32.7196 71.3128 33.0762 69.1018 33.0762H64.0738V39.9586H58.2969V14.9966H69.1018ZM68.7809 28.3691C70.5164 28.3691 71.8358 28.0006 72.7392 27.2636C73.6426 26.5029 74.0942 25.4331 74.0942 24.0542C74.0942 22.6516 73.6426 21.5818 72.7392 20.8448C71.8358 20.0841 70.5164 19.7037 68.7809 19.7037H64.0738V28.3691H68.7809Z" fill="white"/>
<path d="M87.2049 23.3054C87.8705 22.3782 88.762 21.6769 89.8794 21.2014C91.0205 20.726 92.328 20.4882 93.802 20.4882V25.6233C93.1838 25.5757 92.7678 25.5519 92.5539 25.5519C90.961 25.5519 89.7129 26.0036 88.8096 26.907C87.9062 27.7866 87.4545 29.1179 87.4545 30.9009V39.9586H81.8915V20.7735H87.2049V23.3054Z" fill="white"/>
<path d="M104.282 40.2438C102.261 40.2438 100.442 39.8278 98.8256 38.9957C97.2327 38.1399 95.9846 36.9631 95.0813 35.4654C94.1779 33.9677 93.7262 32.2679 93.7262 30.366C93.7262 28.4642 94.1779 26.7644 95.0813 25.2667C95.9846 23.7689 97.2327 22.604 98.8256 21.772C100.442 20.9161 102.261 20.4882 104.282 20.4882C106.302 20.4882 108.109 20.9161 109.702 21.772C111.295 22.604 112.543 23.7689 113.446 25.2667C114.35 26.7644 114.801 28.4642 114.801 30.366C114.801 32.2679 114.35 33.9677 113.446 35.4654C112.543 36.9631 111.295 38.1399 109.702 38.9957C108.109 39.8278 106.302 40.2438 104.282 40.2438ZM104.282 35.6794C105.708 35.6794 106.873 35.2039 107.776 34.253C108.703 33.2783 109.167 31.9826 109.167 30.366C109.167 28.7494 108.703 27.4657 107.776 26.5148C106.873 25.5401 105.708 25.0527 104.282 25.0527C102.855 25.0527 101.678 25.5401 100.751 26.5148C99.824 27.4657 99.3605 28.7494 99.3605 30.366C99.3605 31.9826 99.824 33.2783 100.751 34.253C101.678 35.2039 102.855 35.6794 104.282 35.6794Z" fill="white"/>
<path d="M140.023 14.9966V39.9586H135.28L122.834 24.8031V39.9586H117.129V14.9966H121.907L134.317 30.1521V14.9966H140.023Z" fill="white"/>
<path d="M151.491 20.4882C154.463 20.4882 156.745 21.2014 158.338 22.6278C159.931 24.0304 160.727 26.1582 160.727 29.011V39.9586H155.521V37.5694C154.475 39.3524 152.526 40.2438 149.673 40.2438C148.199 40.2438 146.915 39.9942 145.822 39.495C144.752 38.9957 143.932 38.3063 143.361 37.4267C142.79 36.5471 142.505 35.5486 142.505 34.4313C142.505 32.6483 143.171 31.2456 144.502 30.2234C145.857 29.2011 147.937 28.69 150.743 28.69H155.164C155.164 27.4776 154.796 26.5504 154.059 25.9085C153.322 25.2429 152.217 24.9101 150.743 24.9101C149.72 24.9101 148.71 25.0765 147.711 25.4093C146.737 25.7184 145.905 26.1463 145.215 26.6931L143.218 22.8061C144.264 22.0691 145.512 21.4986 146.963 21.0944C148.437 20.6903 149.946 20.4882 151.491 20.4882ZM151.064 36.4995C152.014 36.4995 152.858 36.2856 153.595 35.8577C154.332 35.406 154.855 34.7522 155.164 33.8964V31.9351H151.349C149.067 31.9351 147.925 32.6839 147.925 34.1817C147.925 34.8949 148.199 35.4654 148.746 35.8933C149.316 36.2975 150.089 36.4995 151.064 36.4995Z" fill="white"/>
<path d="M176.353 39.0314C175.806 39.4356 175.129 39.7446 174.321 39.9586C173.536 40.1488 172.704 40.2438 171.824 40.2438C169.542 40.2438 167.771 39.6614 166.511 38.4965C165.275 37.3316 164.657 35.6199 164.657 33.3615V25.4806H161.697V21.2014H164.657V16.53H170.22V21.2014H174.998V25.4806H170.22V33.2902C170.22 34.0984 170.422 34.7284 170.826 35.1801C171.254 35.608 171.848 35.822 172.609 35.822C173.488 35.822 174.237 35.5843 174.855 35.1088L176.353 39.0314Z" fill="white"/>
<path d="M197.021 20.7735V39.9586H191.743V37.6763C191.006 38.5084 190.126 39.1503 189.104 39.602C188.082 40.0299 186.976 40.2438 185.788 40.2438C183.268 40.2438 181.271 39.5188 179.797 38.0686C178.323 36.6184 177.586 34.4669 177.586 31.6141V20.7735H183.149V30.794C183.149 33.8845 184.445 35.4297 187.036 35.4297C188.367 35.4297 189.437 35.0018 190.245 34.146C191.053 33.2664 191.458 31.9707 191.458 30.2591V20.7735H197.021Z" fill="white"/>
<path d="M205.705 23.3054C206.37 22.3782 207.262 21.6769 208.379 21.2014C209.52 20.726 210.828 20.4882 212.302 20.4882V25.6233C211.684 25.5757 211.268 25.5519 211.054 25.5519C209.461 25.5519 208.213 26.0036 207.309 26.907C206.406 27.7866 205.954 29.1179 205.954 30.9009V39.9586H200.391V20.7735H205.705V23.3054Z" fill="white"/>
<path d="M232.445 30.4374C232.445 30.5087 232.41 31.0079 232.338 31.9351H217.825C218.086 33.1237 218.704 34.0628 219.679 34.7522C220.654 35.4416 221.866 35.7864 223.316 35.7864C224.315 35.7864 225.194 35.6437 225.955 35.3584C226.74 35.0494 227.465 34.5739 228.13 33.932L231.09 37.1414C229.283 39.2097 226.644 40.2438 223.174 40.2438C221.01 40.2438 219.096 39.8278 217.432 38.9957C215.768 38.1399 214.484 36.9631 213.581 35.4654C212.678 33.9677 212.226 32.2679 212.226 30.366C212.226 28.4879 212.666 26.8 213.545 25.3023C214.449 23.7808 215.673 22.604 217.218 21.772C218.787 20.9161 220.535 20.4882 222.46 20.4882C224.338 20.4882 226.038 20.8924 227.56 21.7007C229.081 22.509 230.27 23.6738 231.126 25.1953C232.005 26.6931 232.445 28.4404 232.445 30.4374ZM222.496 24.6961C221.236 24.6961 220.178 25.0527 219.322 25.7659C218.466 26.4791 217.943 27.4538 217.753 28.69H227.203C227.013 27.4776 226.49 26.5148 225.634 25.8016C224.778 25.0646 223.732 24.6961 222.496 24.6961Z" fill="white"/>
<path fill-rule="evenodd" clip-rule="evenodd" d="M26.6179 1.09527C25.7703 0.604961 24.7253 0.604961 23.8777 1.09527C17.8573 4.57789 13.7969 11.0939 13.7969 18.5615C13.7969 19.6258 13.8793 20.6708 14.0382 21.6904C9.89385 20.283 5.40644 20.7951 1.7412 22.9072C0.892777 23.3961 0.370276 24.3011 0.371095 25.2803C0.375415 30.4461 3.05899 35.4808 7.86511 38.2557C10.223 39.617 12.7964 40.2639 15.335 40.2652C14.9487 41.3595 14.7386 42.537 14.7386 43.7635C14.7386 49.5674 19.4436 54.2723 25.2475 54.2723C31.0513 54.2723 35.7563 49.5674 35.7563 43.7635C35.7563 42.5343 35.5452 41.3543 35.1574 40.258C37.5444 40.1827 39.9488 39.5343 42.1631 38.2559C46.9692 35.4811 49.6528 30.4463 49.6571 25.2805C49.6579 24.3013 49.1354 23.3963 48.287 22.9074C44.7661 20.8786 40.4866 20.326 36.4813 21.5332C36.6246 20.5635 36.6988 19.5712 36.6988 18.5615C36.6988 11.0939 32.6383 4.57789 26.6179 1.09527ZM19.2693 18.5615C19.2693 13.7122 21.6174 9.4088 25.2478 6.73011C28.8783 9.4088 31.2263 13.7122 31.2263 18.5615C31.2263 23.4107 28.8783 27.7142 25.2478 30.3928C21.6174 27.7142 19.2693 23.4107 19.2693 18.5615ZM36.0392 27.649C38.5661 26.1901 41.4859 26.0204 44.0364 26.9435C43.5606 29.614 41.9538 32.0577 39.4268 33.5166C36.8999 34.9755 33.9802 35.1452 31.4297 34.2221C31.9055 31.5516 33.5123 29.1079 36.0392 27.649ZM5.99178 26.9433C8.54234 26.0202 11.4621 26.1899 13.989 27.6488C16.5159 29.1077 18.1227 31.5514 18.5985 34.2218C16.048 35.145 13.1283 34.9753 10.6014 33.5164C8.07443 32.0574 6.46759 29.6137 5.99178 26.9433ZM20.2111 43.7635C20.2111 40.982 22.466 38.7271 25.2475 38.7271C28.029 38.7271 30.2838 40.982 30.2838 43.7635C30.2838 46.545 28.029 48.7999 25.2475 48.7999C22.466 48.7999 20.2111 46.545 20.2111 43.7635Z" fill="white"/>
</svg>
