<svg width="192" height="43" viewBox="0 0 192 43" fill="none" xmlns="http://www.w3.org/2000/svg">
<path d="M65.9961 40.8063C61.5784 40.8063 58.1327 39.5841 55.6588 37.1397C53.2144 34.6952 51.9922 31.2053 51.9922 26.6699V9.35278H59.1487V26.4048C59.1487 31.9416 61.4459 34.71 66.0402 34.71C68.2785 34.71 69.9867 34.0473 71.1647 32.722C72.3427 31.3673 72.9317 29.2616 72.9317 26.4048V9.35278H79.9999V26.6699C79.9999 31.2053 78.763 34.6952 76.2891 37.1397C73.8447 39.5841 70.4137 40.8063 65.9961 40.8063Z" fill="white"/>
<path d="M83.4937 25.0795H95.9955V30.6016H83.4937V25.0795Z" fill="white"/>
<path d="M104.504 15.1841H94.6088V9.35278H121.556V15.1841H111.661V40.2762H104.504V15.1841Z" fill="white"/>
<path d="M146.138 16.5093V40.2762H139.6V37.4489C138.687 38.4797 137.597 39.2748 136.331 39.8344C135.065 40.3645 133.695 40.6296 132.222 40.6296C129.101 40.6296 126.627 39.7313 124.801 37.9348C122.975 36.1383 122.062 33.473 122.062 29.9389V16.5093H128.953V28.9229C128.953 32.7515 130.559 34.6658 133.769 34.6658C135.418 34.6658 136.743 34.1357 137.745 33.0754C138.746 31.9858 139.247 30.3807 139.247 28.2602V16.5093H146.138Z" fill="white"/>
<path d="M156.896 19.6459C157.721 18.4973 158.825 17.6285 160.209 17.0395C161.623 16.4504 163.243 16.1559 165.069 16.1559V22.5173C164.303 22.4584 163.787 22.429 163.522 22.429C161.549 22.429 160.003 22.9885 158.884 24.1077C157.765 25.1973 157.205 26.8466 157.205 29.0554V40.2762H150.314V16.5093H156.896V19.6459Z" fill="white"/>
<path d="M181.403 16.1559C184.348 16.1559 186.719 17.0395 188.515 18.8065C190.341 20.5736 191.254 23.1947 191.254 26.6699V40.2762H184.363V27.7301C184.363 25.8453 183.951 24.4463 183.126 23.5334C182.301 22.5909 181.109 22.1197 179.548 22.1197C177.81 22.1197 176.426 22.6646 175.395 23.7542C174.364 24.8145 173.849 26.4048 173.849 28.5253V40.2762H166.957V16.5093H173.54V19.2924C174.453 18.2911 175.587 17.5254 176.941 16.9953C178.296 16.4357 179.783 16.1559 181.403 16.1559Z" fill="white"/>
<path fill-rule="evenodd" clip-rule="evenodd" d="M21.2068 1.31575C22.382 0.140517 24.2874 0.140517 25.4627 1.31575L36.4682 12.3213L25.4126 22.8743C24.2104 24.0219 22.3055 23.9776 21.1579 22.7754C20.0103 21.5732 20.0546 19.6682 21.2568 18.5206L24.6511 15.2806H17.316C11.4434 15.2806 6.68282 20.0412 6.68282 25.9138C6.68282 31.7863 11.4434 36.5469 17.316 36.5469H32.1622C33.8243 36.5469 35.1716 37.8942 35.1716 39.5563C35.1716 41.2183 33.8243 42.5657 32.1622 42.5657H17.316C8.11938 42.5657 0.664062 35.1103 0.664062 25.9138C0.664062 16.7172 8.11937 9.26184 17.316 9.26184H24.897L21.2068 5.57166C20.0315 4.39643 20.0315 2.49099 21.2068 1.31575Z" fill="white"/>
</svg>
