<svg width="640" height="199" viewBox="0 0 640 199" fill="none" xmlns="http://www.w3.org/2000/svg">
<g clip-path="url(#clip0_6559_46638)">
<g clip-path="url(#clip1_6559_46638)">
<g opacity="0.5">
<path opacity="0.0526316" d="M802.671 97.8594C795.395 82.5348 766.19 51.1251 707.581 48.0831C634.32 44.2806 591.541 85.4698 523.08 91.1569C472.55 95.3543 344.451 83.963 287.114 29.2083" stroke="url(#paint0_linear_6559_46638)" stroke-opacity="0.6" stroke-width="2" stroke-dasharray="6 6"/>
<path opacity="0.105263" d="M801.758 119.223C796.383 103.603 770.922 70.349 712.071 62.2985C638.507 52.2353 589.94 88.8226 520.002 88.4577C468.382 88.1885 340.366 65.9536 289.485 7.4277" stroke="url(#paint1_linear_6559_46638)" stroke-opacity="0.6" stroke-width="2" stroke-dasharray="6 6"/>
<path opacity="0.157895" d="M797.262 140.746C793.849 125.001 772.409 90.2673 713.961 77.2965C640.9 61.0829 587.078 92.6674 516.428 86.2546C464.283 81.5215 337.754 48.6867 293.886 -12.9691" stroke="url(#paint2_linear_6559_46638)" stroke-opacity="0.6" stroke-width="2" stroke-dasharray="6 6"/>
<path opacity="0.210526" d="M790.384 160.62C788.969 144.923 771.787 109.09 714.382 91.3406C642.625 69.1543 584.136 95.3899 513.549 82.9995C461.451 73.8545 337.794 30.7795 301.42 -33.3307" stroke="url(#paint3_linear_6559_46638)" stroke-opacity="0.6" stroke-width="2" stroke-dasharray="6 6"/>
<path opacity="0.263158" d="M780.597 179.761C781.195 164.283 768.459 127.743 712.725 105.41C643.058 77.4945 580.544 98.0937 510.793 79.8615C459.312 66.4047 339.883 13.5615 311.402 -52.3008" stroke="url(#paint4_linear_6559_46638)" stroke-opacity="0.6" stroke-width="2" stroke-dasharray="6 6"/>
<path opacity="0.315789" d="M768.504 197.331C771.11 182.242 762.958 145.396 709.507 118.724C642.693 85.3842 576.839 100.121 508.688 76.247C458.389 58.6259 344.495 -3.40655 324.218 -70.2992" stroke="url(#paint5_linear_6559_46638)" stroke-opacity="0.6" stroke-width="2" stroke-dasharray="6 6"/>
<path opacity="0.368421" d="M753.637 214.207C758.221 199.673 754.744 162.925 704.161 132.206C640.932 93.8075 572.459 102.521 506.656 73.2663C458.088 51.674 350.978 -18.8681 339.128 -86.0583" stroke="url(#paint6_linear_6559_46638)" stroke-opacity="0.6" stroke-width="2" stroke-dasharray="6 6"/>
<path opacity="0.421053" d="M737.117 228.625C743.63 214.804 744.866 178.556 697.705 144.127C638.754 101.091 568.412 103.686 505.677 69.3706C459.374 44.0435 360.221 -34.2354 356.928 -100.987" stroke="url(#paint7_linear_6559_46638)" stroke-opacity="0.6" stroke-width="2" stroke-dasharray="6 6"/>
<path opacity="0.473684" d="M718.471 241.539C726.841 228.584 732.775 193.233 689.554 155.471C635.526 108.268 564.086 104.716 505.107 65.7167C461.575 36.9324 371.466 -48.2255 376.766 -113.807" stroke="url(#paint8_linear_6559_46638)" stroke-opacity="0.6" stroke-width="2" stroke-dasharray="6 6"/>
<path opacity="0.526316" d="M697.719 252.989C707.854 241.04 718.423 206.974 679.613 166.292C631.102 115.441 559.346 105.78 504.768 62.5239C464.486 30.5978 384.407 -60.5063 398.242 -124.199" stroke="url(#paint9_linear_6559_46638)" stroke-opacity="0.6" stroke-width="2" stroke-dasharray="6 6"/>
<path opacity="0.578947" d="M674.206 261.483C685.996 250.672 701.082 218.263 667.111 175.108C624.647 121.165 553.362 105.501 503.784 58.4623C467.191 23.7442 398.02 -72.3078 420.238 -133.415" stroke="url(#paint10_linear_6559_46638)" stroke-opacity="0.6" stroke-width="2" stroke-dasharray="6 6"/>
<path opacity="0.631579" d="M650.46 268.275C663.775 258.721 683.214 228.325 654.453 183.169C618.501 126.725 548.468 105.23 504.433 54.9239C471.931 17.7942 414.426 -82.1535 444.784 -140.004" stroke="url(#paint11_linear_6559_46638)" stroke-opacity="0.6" stroke-width="2" stroke-dasharray="6 6"/>
<path opacity="0.684211" d="M625.269 272.826C639.963 264.634 663.542 236.583 640.306 189.921C611.261 131.594 543.246 104.504 505.236 51.4816C477.182 12.347 431.973 -90.4011 470.138 -144.362" stroke="url(#paint12_linear_6559_46638)" stroke-opacity="0.6" stroke-width="2" stroke-dasharray="6 6"/>
<path opacity="0.736842" d="M599.344 276.667C615.257 269.926 642.718 244.529 625.261 196.872C603.44 137.301 538.191 104.912 506.622 49.7544C483.322 9.04368 450.905 -95.3793 496.458 -144.86" stroke="url(#paint13_linear_6559_46638)" stroke-opacity="0.6" stroke-width="2" stroke-dasharray="6 6"/>
<path opacity="0.789474" d="M573.667 275.628C590.623 270.412 621.665 247.946 610.179 199.816C595.822 139.655 534.051 102.322 509.27 45.6329C490.98 3.79217 471.709 -101.162 524.153 -145.619" stroke="url(#paint14_linear_6559_46638)" stroke-opacity="0.6" stroke-width="2" stroke-dasharray="6 6"/>
<path opacity="0.842105" d="M545.498 274.289C563.313 270.654 597.595 251.366 592.206 203.291C585.47 143.198 527.855 101.33 510.134 43.7311C497.054 1.21871 491.14 -103.116 549.899 -142.063" stroke="url(#paint15_linear_6559_46638)" stroke-opacity="0.6" stroke-width="2" stroke-dasharray="6 6"/>
<path opacity="0.894737" d="M518.823 268.768C537.3 266.755 574.447 250.856 575.214 203.362C576.173 143.996 523.345 98.0523 512.877 40.1743C505.15 -2.54395 512.659 -105.116 577.089 -138.127" stroke="url(#paint16_linear_6559_46638)" stroke-opacity="0.6" stroke-width="2" stroke-dasharray="6 6"/>
<path opacity="0.947368" d="M491.468 262.74C510.406 262.371 550.011 250.035 556.925 203.643C565.568 145.653 518.107 96.1372 515.006 38.6144C512.718 -3.84167 533.566 -103.528 602.962 -130.24" stroke="url(#paint17_linear_6559_46638)" stroke-opacity="0.6" stroke-width="2" stroke-dasharray="6 6"/>
<path d="M466.295 254.135C485.486 255.414 527.115 246.775 540.101 201.994C556.334 146.016 514.758 93.47 519.059 36.9327C522.234 -4.79612 556.195 -100.504 629.796 -120.625" stroke="url(#paint18_linear_6559_46638)" stroke-opacity="0.6" stroke-width="2" stroke-dasharray="6 6"/>
</g>
</g>
<g filter="url(#filter0_f_6559_46638)">
<circle cx="406" cy="-176" r="271" fill="url(#paint19_linear_6559_46638)"/>
</g>
<g filter="url(#filter1_f_6559_46638)">
<circle cx="147" cy="-176" r="271" fill="url(#paint20_linear_6559_46638)"/>
</g>
</g>
<defs>
<filter id="filter0_f_6559_46638" x="-65" y="-647" width="942" height="942" filterUnits="userSpaceOnUse" color-interpolation-filters="sRGB">
<feFlood flood-opacity="0" result="BackgroundImageFix"/>
<feBlend mode="normal" in="SourceGraphic" in2="BackgroundImageFix" result="shape"/>
<feGaussianBlur stdDeviation="100" result="effect1_foregroundBlur_6559_46638"/>
</filter>
<filter id="filter1_f_6559_46638" x="-324" y="-647" width="942" height="942" filterUnits="userSpaceOnUse" color-interpolation-filters="sRGB">
<feFlood flood-opacity="0" result="BackgroundImageFix"/>
<feBlend mode="normal" in="SourceGraphic" in2="BackgroundImageFix" result="shape"/>
<feGaussianBlur stdDeviation="100" result="effect1_foregroundBlur_6559_46638"/>
</filter>
<linearGradient id="paint0_linear_6559_46638" x1="542.875" y1="34.872" x2="537.982" y2="96.1802" gradientUnits="userSpaceOnUse">
<stop/>
<stop offset="0.317303" stop-color="white" stop-opacity="0.6"/>
<stop offset="0.644234"/>
<stop offset="0.841354" stop-color="white" stop-opacity="0.8"/>
<stop offset="1" stop-color="#666666" stop-opacity="0.9"/>
</linearGradient>
<linearGradient id="paint1_linear_6559_46638" x1="547.287" y1="35.1138" x2="537.406" y2="95.1539" gradientUnits="userSpaceOnUse">
<stop/>
<stop offset="0.317303" stop-color="white" stop-opacity="0.6"/>
<stop offset="0.644234"/>
<stop offset="0.841354" stop-color="white" stop-opacity="0.8"/>
<stop offset="1" stop-color="#666666" stop-opacity="0.9"/>
</linearGradient>
<linearGradient id="paint2_linear_6559_46638" x1="550.904" y1="36.436" x2="536.232" y2="95.0816" gradientUnits="userSpaceOnUse">
<stop/>
<stop offset="0.317303" stop-color="white" stop-opacity="0.6"/>
<stop offset="0.644234"/>
<stop offset="0.841354" stop-color="white" stop-opacity="0.8"/>
<stop offset="1" stop-color="#666666" stop-opacity="0.9"/>
</linearGradient>
<linearGradient id="paint3_linear_6559_46638" x1="554.839" y1="37.2521" x2="535.493" y2="94.3871" gradientUnits="userSpaceOnUse">
<stop/>
<stop offset="0.317303" stop-color="white" stop-opacity="0.6"/>
<stop offset="0.644234"/>
<stop offset="0.841354" stop-color="white" stop-opacity="0.8"/>
<stop offset="1" stop-color="#666666" stop-opacity="0.9"/>
</linearGradient>
<linearGradient id="paint4_linear_6559_46638" x1="558.444" y1="38.6865" x2="534.469" y2="94.182" gradientUnits="userSpaceOnUse">
<stop/>
<stop offset="0.317303" stop-color="white" stop-opacity="0.6"/>
<stop offset="0.644234"/>
<stop offset="0.841354" stop-color="white" stop-opacity="0.8"/>
<stop offset="1" stop-color="#666666" stop-opacity="0.9"/>
</linearGradient>
<linearGradient id="paint5_linear_6559_46638" x1="562.178" y1="40.0956" x2="533.55" y2="93.788" gradientUnits="userSpaceOnUse">
<stop/>
<stop offset="0.317303" stop-color="white" stop-opacity="0.6"/>
<stop offset="0.644234"/>
<stop offset="0.841354" stop-color="white" stop-opacity="0.8"/>
<stop offset="1" stop-color="#666666" stop-opacity="0.9"/>
</linearGradient>
<linearGradient id="paint6_linear_6559_46638" x1="565.398" y1="42.5345" x2="532.038" y2="94.2037" gradientUnits="userSpaceOnUse">
<stop/>
<stop offset="0.317303" stop-color="white" stop-opacity="0.6"/>
<stop offset="0.644234"/>
<stop offset="0.841354" stop-color="white" stop-opacity="0.8"/>
<stop offset="1" stop-color="#666666" stop-opacity="0.9"/>
</linearGradient>
<linearGradient id="paint7_linear_6559_46638" x1="569.029" y1="44.395" x2="530.814" y2="93.7424" gradientUnits="userSpaceOnUse">
<stop/>
<stop offset="0.317303" stop-color="white" stop-opacity="0.6"/>
<stop offset="0.644234"/>
<stop offset="0.841354" stop-color="white" stop-opacity="0.8"/>
<stop offset="1" stop-color="#666666" stop-opacity="0.9"/>
</linearGradient>
<linearGradient id="paint8_linear_6559_46638" x1="572.374" y1="46.7711" x2="529.16" y2="93.3963" gradientUnits="userSpaceOnUse">
<stop/>
<stop offset="0.317303" stop-color="white" stop-opacity="0.6"/>
<stop offset="0.644234"/>
<stop offset="0.841354" stop-color="white" stop-opacity="0.8"/>
<stop offset="1" stop-color="#666666" stop-opacity="0.9"/>
</linearGradient>
<linearGradient id="paint9_linear_6559_46638" x1="575.214" y1="49.8158" x2="526.861" y2="93.1945" gradientUnits="userSpaceOnUse">
<stop/>
<stop offset="0.317303" stop-color="white" stop-opacity="0.6"/>
<stop offset="0.644234"/>
<stop offset="0.841354" stop-color="white" stop-opacity="0.8"/>
<stop offset="1" stop-color="#666666" stop-opacity="0.9"/>
</linearGradient>
<linearGradient id="paint10_linear_6559_46638" x1="576.636" y1="52.131" x2="523.047" y2="91.5949" gradientUnits="userSpaceOnUse">
<stop/>
<stop offset="0.317303" stop-color="white" stop-opacity="0.6"/>
<stop offset="0.644234"/>
<stop offset="0.841354" stop-color="white" stop-opacity="0.8"/>
<stop offset="1" stop-color="#666666" stop-opacity="0.9"/>
</linearGradient>
<linearGradient id="paint11_linear_6559_46638" x1="578.893" y1="55.0387" x2="520.073" y2="89.7647" gradientUnits="userSpaceOnUse">
<stop/>
<stop offset="0.317303" stop-color="white" stop-opacity="0.6"/>
<stop offset="0.644234"/>
<stop offset="0.841354" stop-color="white" stop-opacity="0.8"/>
<stop offset="1" stop-color="#666666" stop-opacity="0.9"/>
</linearGradient>
<linearGradient id="paint12_linear_6559_46638" x1="580.489" y1="58.0413" x2="516.606" y2="87.0568" gradientUnits="userSpaceOnUse">
<stop/>
<stop offset="0.317303" stop-color="white" stop-opacity="0.6"/>
<stop offset="0.644234"/>
<stop offset="0.841354" stop-color="white" stop-opacity="0.8"/>
<stop offset="1" stop-color="#666666" stop-opacity="0.9"/>
</linearGradient>
<linearGradient id="paint13_linear_6559_46638" x1="581.843" y1="62.687" x2="513.31" y2="84.9036" gradientUnits="userSpaceOnUse">
<stop/>
<stop offset="0.317303" stop-color="white" stop-opacity="0.6"/>
<stop offset="0.644234"/>
<stop offset="0.841354" stop-color="white" stop-opacity="0.8"/>
<stop offset="1" stop-color="#666666" stop-opacity="0.9"/>
</linearGradient>
<linearGradient id="paint14_linear_6559_46638" x1="583.635" y1="64.7969" x2="511.19" y2="79.0825" gradientUnits="userSpaceOnUse">
<stop/>
<stop offset="0.317303" stop-color="white" stop-opacity="0.6"/>
<stop offset="0.644234"/>
<stop offset="0.841354" stop-color="white" stop-opacity="0.8"/>
<stop offset="1" stop-color="#666666" stop-opacity="0.9"/>
</linearGradient>
<linearGradient id="paint15_linear_6559_46638" x1="582.827" y1="68.9164" x2="507.581" y2="74.2137" gradientUnits="userSpaceOnUse">
<stop/>
<stop offset="0.317303" stop-color="white" stop-opacity="0.6"/>
<stop offset="0.644234"/>
<stop offset="0.841354" stop-color="white" stop-opacity="0.8"/>
<stop offset="1" stop-color="#666666" stop-opacity="0.9"/>
</linearGradient>
<linearGradient id="paint16_linear_6559_46638" x1="583.103" y1="71.105" x2="506.544" y2="66.586" gradientUnits="userSpaceOnUse">
<stop/>
<stop offset="0.317303" stop-color="white" stop-opacity="0.6"/>
<stop offset="0.644234"/>
<stop offset="0.841354" stop-color="white" stop-opacity="0.8"/>
<stop offset="1" stop-color="#666666" stop-opacity="0.9"/>
</linearGradient>
<linearGradient id="paint17_linear_6559_46638" x1="581.996" y1="74.9517" x2="505.913" y2="60.18" gradientUnits="userSpaceOnUse">
<stop/>
<stop offset="0.317303" stop-color="white" stop-opacity="0.6"/>
<stop offset="0.644234"/>
<stop offset="0.841354" stop-color="white" stop-opacity="0.8"/>
<stop offset="1" stop-color="#666666" stop-opacity="0.9"/>
</linearGradient>
<linearGradient id="paint18_linear_6559_46638" x1="582.078" y1="78.2783" x2="508.404" y2="53.3325" gradientUnits="userSpaceOnUse">
<stop/>
<stop offset="0.317303" stop-color="white" stop-opacity="0.6"/>
<stop offset="0.644234"/>
<stop offset="0.841354" stop-color="white" stop-opacity="0.8"/>
<stop offset="1" stop-color="#666666" stop-opacity="0.9"/>
</linearGradient>
<linearGradient id="paint19_linear_6559_46638" x1="152.505" y1="-331.53" x2="690.076" y2="-307.216" gradientUnits="userSpaceOnUse">
<stop stop-color="#0055FF"/>
<stop offset="1" stop-color="#18BFDB"/>
</linearGradient>
<linearGradient id="paint20_linear_6559_46638" x1="-106.495" y1="-331.53" x2="431.076" y2="-307.216" gradientUnits="userSpaceOnUse">
<stop stop-color="#0055FF"/>
<stop offset="1" stop-color="#18BFDB"/>
</linearGradient>
<clipPath id="clip0_6559_46638">
<rect width="640" height="199" rx="16" fill="white"/>
</clipPath>
<clipPath id="clip1_6559_46638">
<rect width="495" height="412" fill="white" transform="translate(228 -215)"/>
</clipPath>
</defs>
</svg>
