<svg width="64" height="64" viewBox="0 0 64 64" fill="none" xmlns="http://www.w3.org/2000/svg">
<path d="M25.0948 8.36852L26.6498 10.2673L28.9636 11.171C29.5698 11.4085 29.7748 12.131 29.4248 12.6623L28.1036 14.7248L27.9586 17.1985C27.9236 17.8298 27.3211 18.2823 26.6648 18.0948L24.3123 17.4785L21.9136 18.106C21.3036 18.266 20.7023 17.826 20.6661 17.196V17.1998L20.5248 14.726L19.1861 12.6423C18.8461 12.1073 19.0798 11.3985 19.6648 11.1723L21.9748 10.2685L23.5448 8.35476C23.9461 7.86227 24.7011 7.87602 25.0948 8.36852ZM24.8286 2.91602C30.7498 2.91602 35.5511 7.71727 35.5511 13.641C35.5511 19.891 30.2261 24.8235 23.9748 24.3273C23.8261 24.3173 23.6698 24.2985 23.5111 24.2773C22.6436 24.8123 21.6936 25.2023 20.6936 25.4185C19.5948 25.6523 18.4398 25.6873 17.2711 25.486C16.4423 25.3448 16.1511 24.3235 16.7861 23.746C17.1223 23.4448 17.5023 22.981 17.7636 22.626H17.7598C17.9011 22.431 18.0323 22.2323 18.1561 22.0273C13.1598 18.0523 12.6998 10.5998 17.2448 6.05727C19.1873 4.11727 21.8661 2.91602 24.8286 2.91602ZM30.9973 7.47227C27.5886 4.06352 22.0648 4.06352 18.6598 7.47227C15.9523 10.1798 15.3148 14.3673 17.1286 17.7548C17.8023 19.0123 18.7761 20.086 19.9598 20.8798C20.3923 21.1423 20.5623 21.6948 20.3423 22.1585C20.1086 22.6585 19.8361 23.1335 19.5273 23.5835C20.6148 23.4698 21.8198 23.0523 22.6886 22.4385C23.1461 22.1198 23.4923 22.286 24.1311 22.336C29.2086 22.7398 33.5523 18.7323 33.5523 13.641C33.5523 11.2323 32.5748 9.04852 30.9973 7.47227ZM46.5848 30.8398C47.2611 32.0485 47.3611 33.511 46.8436 34.8085C47.4961 34.2948 48.1086 33.6635 48.6686 32.9235C48.0336 32.0835 47.3323 31.386 46.5848 30.8398ZM38.2723 34.8085C37.7548 33.511 37.8548 32.0485 38.5311 30.8398C37.7836 31.386 37.0823 32.0835 36.4473 32.9235C37.0073 33.6648 37.6198 34.2948 38.2723 34.8085ZM47.0561 28.7598C48.4198 29.5923 49.6673 30.8048 50.7123 32.346C50.9461 32.676 50.9636 33.1285 50.7261 33.4835C47.7211 37.9335 42.7111 39.9248 38.0586 37.0873C36.6948 36.2548 35.4473 35.0423 34.4023 33.501C34.1686 33.171 34.1511 32.7185 34.3886 32.3635C37.3973 27.9098 42.4036 25.9223 47.0561 28.7598ZM60.4461 58.0885C60.1736 59.1085 59.5136 60.0235 58.5323 60.5898V60.586C56.6048 61.7235 54.0498 61.0573 52.9086 59.0798L47.4348 49.601C47.1511 49.1085 47.3148 48.5173 47.8498 48.2085L46.8823 46.5398C45.2911 47.046 43.6511 47.2623 42.0348 47.2023V54.2885H43.7148C44.2673 54.2885 44.7136 54.7348 44.7136 55.2873V59.146C44.7136 59.6948 44.2673 60.1448 43.7148 60.1448H4.10358C3.55108 60.1448 3.10483 59.6948 3.10483 59.146V55.2873C3.10483 54.7348 3.55108 54.2885 4.10358 54.2885H5.78358V44.5698C5.78358 44.0173 6.22983 43.571 6.78233 43.571H11.4911V36.0773C11.4911 35.5248 11.9373 35.0785 12.4898 35.0785H18.1986C18.7511 35.0785 19.2011 35.5248 19.2011 36.0773V39.6635H22.9073V35.8473C22.9073 35.2948 23.3573 34.8485 23.9061 34.8485H28.3986C28.1473 33.0198 28.2598 31.171 28.7073 29.4135L24.4548 31.826C24.5898 34.5548 21.2761 36.0248 19.3448 34.0935C18.7886 33.5335 18.4523 32.761 18.4698 31.9148L16.0811 30.7423C15.0823 31.7523 13.5198 31.9298 12.3248 31.1635L8.18608 34.891C8.79858 36.8148 7.36358 38.796 5.32983 38.796C2.67233 38.796 1.32983 35.5648 3.21483 33.6835C4.21358 32.681 5.78733 32.5173 6.97483 33.2973L11.0998 29.5798C10.4623 27.6523 11.9011 25.6473 13.9448 25.6473C15.7161 25.6473 17.1023 27.1748 16.9248 28.9385L19.1711 30.0435C20.3436 28.6548 22.4698 28.6185 23.6886 29.9685L29.7961 26.4998C31.0048 24.0935 32.9073 22.0035 35.4198 20.5535C38.8811 18.5873 42.6836 18.1648 46.2548 19.1223C53.8761 21.1673 58.3973 29.0048 56.3573 36.6185C55.6623 39.2123 54.2423 41.6073 52.1873 43.4785L53.1511 45.1473L53.2011 45.1185V45.1223C53.6723 44.846 54.2886 45.0048 54.5611 45.4873L60.0386 54.9698C60.6048 55.9523 60.7186 57.0748 60.4461 58.0885ZM49.5748 47.2135L51.4248 46.1435L50.6061 44.726C49.9936 45.141 49.4223 45.4698 48.7561 45.7923L49.5748 47.2135ZM46.9286 44.4148C46.9611 44.401 46.9923 44.386 47.0248 44.376C47.5711 44.1635 48.1061 43.9085 48.6298 43.611C48.6686 43.5823 48.7148 43.5573 48.7611 43.536C51.6661 41.8348 53.6186 39.1248 54.4298 36.106C56.1873 29.5435 52.2936 22.811 45.7386 21.0535C42.7273 20.246 39.4061 20.5785 36.4873 22.2373C36.4411 22.2698 36.3911 22.2973 36.3348 22.3223C34.1773 23.591 32.5473 25.4185 31.5236 27.5173C31.4948 27.5985 31.4598 27.6735 31.4136 27.7473C31.1161 28.3885 30.8711 29.0585 30.6911 29.7423C30.1986 31.5748 30.1273 33.5198 30.5248 35.4223C30.5848 35.5498 30.6173 35.691 30.6211 35.8435C30.8898 36.9485 31.3186 38.0335 31.9173 39.0685H31.9136C33.6111 41.946 36.1973 43.941 39.3798 44.7948C41.8473 45.456 44.4936 45.3435 46.9286 44.4148ZM37.0598 23.2685C39.7061 21.7585 42.7073 21.4573 45.4323 22.1873C51.3598 23.7748 54.8823 29.8723 53.2948 35.801C51.7036 41.7285 45.6098 45.2473 39.6811 43.6598C33.7498 42.0723 30.2348 35.971 31.8223 30.046C32.5561 27.2998 34.3411 24.8335 36.9986 23.2998C37.0211 23.286 37.0386 23.2748 37.0598 23.2685ZM44.9186 24.1185C40.0461 22.811 35.0536 25.6985 33.7498 30.5635C32.4461 35.4323 35.3336 40.4285 40.1948 41.7285C45.0636 43.0323 50.0598 40.1485 51.3636 35.2835C52.6686 30.4148 49.7811 25.4185 44.9186 24.1185ZM40.0323 46.9835C38.7498 46.7535 37.5023 46.3498 36.3261 45.7785V54.2898H40.0323V46.9835ZM22.1711 31.2685C21.5436 30.6448 20.4698 31.0873 20.4698 31.9735C20.4698 32.856 21.5436 33.3023 22.1711 32.6748C22.5573 32.2898 22.5573 31.6585 22.1711 31.2685ZM14.6523 27.9348C14.0248 27.311 12.9511 27.7535 12.9511 28.6398C12.9511 29.526 14.0248 29.9685 14.6523 29.3448C15.0386 28.9548 15.0423 28.3248 14.6523 27.9348ZM6.03858 35.096C5.41483 34.4723 4.33733 34.9148 4.33733 35.801C4.33733 36.6835 5.41483 37.1298 6.03858 36.5023C6.42858 36.116 6.42858 35.486 6.03858 35.096ZM13.4936 54.2898H17.1998V37.076H13.4936V54.2898ZM24.9098 54.2898H28.6161V36.846H24.9098V54.2898ZM42.7111 56.2923H5.10358V58.146H42.7123V56.2923H42.7111Z" fill="#18BFDB"/>
</svg>
