<svg width="1920" height="1080" viewBox="0 0 1920 1080" fill="none" xmlns="http://www.w3.org/2000/svg">
<g clip-path="url(#clip0_641_15863)">
<rect width="1920" height="1080" fill="white"/>
<path d="M-259.313 191.565C-526.111 -169.896 462.207 -206.688 1175.44 -97.5456C1591.59 -41.4152 1864.87 -215.977 2380.39 -146.311C2895.91 -76.6461 2277.91 142.8 3066.72 255.425C3855.52 368.051 3470.43 871.962 2781 877.767C2091.58 883.573 2281.01 968.333 1591.59 1162.23C902.157 1356.14 -259.311 1086.76 29.5028 802.297C318.317 517.83 29.4995 582.851 -259.313 191.565Z" stroke="#018BFD" stroke-opacity="0.2" stroke-width="2.5" stroke-linecap="round" stroke-dasharray="10 20"/>
<path d="M1224.5 472.871C1193.72 438.444 1337.9 382.904 1453.84 406.607C1560.01 428.312 1668.12 413.673 1739.55 423.35C1927.59 448.824 1858.42 462.308 1942.48 492.563C2044.77 529.379 2093.58 625.785 1858.42 625.785C1665.02 625.785 1722.89 660.905 1578.06 676.466C1433.24 692.028 1269 665.539 1269 595.8C1269 569.611 1275.77 530.21 1224.5 472.871Z" stroke="#018BFD" stroke-opacity="0.2" stroke-width="2.5" stroke-linecap="round" stroke-dasharray="10 20"/>
<path d="M-124.439 215.383C-369.781 -116.347 541.798 -154.844 1200.74 -53.469C1588.7 -0.468155 1846.97 -160.491 2322.11 -96.2794C2807.86 -30.6315 2239.76 170.09 2964.49 275.228C3690.89 380.961 3345.25 847.827 2697.12 853.105C2052.78 858.382 2230.26 938.629 1590.34 1116.32C950.42 1294.01 -120.392 1046.71 142.166 781.769C404.725 520.782 142.779 576.31 -124.439 215.383Z" stroke="#018BFD" stroke-opacity="0.2" stroke-width="2.5" stroke-linecap="round" stroke-dasharray="10 20"/>
<path d="M10.428 239.2C-213.458 -62.8002 621.381 -103.001 1226.02 -9.39333C1585.8 40.4779 1829.06 -105.007 2263.83 -46.2484C2719.81 15.3821 2201.6 197.38 2862.27 295.029C3526.25 393.871 3220.05 823.691 2613.22 828.441C2013.98 833.191 2179.49 908.925 1589.08 1070.4C998.674 1231.88 18.5197 1006.67 254.822 761.24C491.125 523.733 256.051 569.769 10.428 239.2Z" stroke="#018BFD" stroke-opacity="0.2" stroke-width="2.5" stroke-linecap="round" stroke-dasharray="10 20"/>
<path d="M145.311 263.02C-57.1186 -9.24975 700.981 -51.1549 1251.32 34.6856C1582.92 81.4272 1811.16 -49.5189 2205.56 3.78579C2631.77 61.399 2163.45 224.673 2760.05 314.834C3361.63 406.784 3094.88 799.558 2529.34 803.78C1975.19 808.002 2128.75 879.224 1587.85 1024.49C1046.95 1169.75 157.448 966.619 367.495 740.715C577.542 526.688 369.34 563.23 145.311 263.02Z" stroke="#018BFD" stroke-opacity="0.2" stroke-width="2.5" stroke-linecap="round" stroke-dasharray="10 20"/>
<path d="M280.188 286.84C99.2139 44.3005 780.574 0.691067 1276.61 78.7643C1580.04 122.376 1793.26 5.96875 2147.29 53.8199C2543.73 107.416 2125.3 251.966 2657.84 334.639C3197 419.697 2969.69 775.425 2445.45 779.119C1936.4 782.813 2077.99 849.522 1586.6 978.573C1095.21 1107.62 296.37 926.572 480.161 720.189C663.952 529.642 482.622 556.691 280.188 286.84Z" stroke="#018BFD" stroke-opacity="0.2" stroke-width="2.5" stroke-linecap="round" stroke-dasharray="10 20"/>
<path d="M415.066 311.87C255.548 99.0615 860.169 53.7477 1301.91 124.054C1577.15 164.536 1775.36 62.667 2089.02 105.065C2455.68 154.643 2087.15 280.47 2555.62 355.654C3032.37 433.821 2844.51 752.502 2361.57 755.669C1897.6 758.835 2027.24 821.032 1585.36 933.87C1143.48 1046.71 435.293 887.737 592.828 700.874C750.363 533.806 595.905 551.363 415.066 311.87Z" stroke="#018BFD" stroke-opacity="0.2" stroke-width="2.5" stroke-linecap="round" stroke-dasharray="10 20"/>
<path d="M549.939 338.324C411.876 155.245 939.758 108.227 1327.2 170.766C1574.26 208.119 1757.45 120.788 2030.74 157.732C2367.64 203.294 2049 310.397 2453.4 378.093C2867.74 449.368 2719.32 731.003 2277.68 733.642C1858.81 736.281 1976.48 793.964 1584.11 890.589C1191.74 987.215 574.211 850.324 705.49 682.982C836.769 539.394 709.183 547.458 549.939 338.324Z" stroke="#018BFD" stroke-opacity="0.2" stroke-width="2.5" stroke-linecap="round" stroke-dasharray="10 20"/>
<path d="M684.823 364.86C568.216 211.512 1019.36 162.789 1352.5 217.561C1571.38 251.784 1739.56 178.992 1972.47 210.482C2279.6 252.026 2010.85 340.405 2351.19 400.613C2703.12 464.996 2594.15 709.586 2193.8 711.697C1820.02 713.808 1925.73 766.979 1582.87 847.391C1240.01 927.803 713.14 812.993 818.163 665.172C923.187 545.064 822.472 543.634 684.823 364.86Z" stroke="#018BFD" stroke-opacity="0.2" stroke-width="2.5" stroke-linecap="round" stroke-dasharray="10 20"/>
<path d="M819.72 391.51C724.569 267.892 1098.97 217.465 1377.81 264.469C1568.52 295.563 1721.68 237.309 1914.22 263.346C2191.57 300.873 1972.72 370.528 2248.99 423.248C2538.51 480.739 2468.98 688.282 2109.93 689.866C1781.25 691.449 1875 740.107 1581.65 804.307C1288.29 868.507 852.082 775.777 930.849 647.476C1009.62 550.848 935.774 539.926 819.72 391.51Z" stroke="#018BFD" stroke-opacity="0.2" stroke-width="2.5" stroke-linecap="round" stroke-dasharray="10 20"/>
<path d="M954.611 418.326C880.916 324.438 1178.58 272.307 1403.12 311.545C1565.65 339.509 1703.79 295.793 1855.96 316.377C2103.54 349.886 1934.59 400.817 2146.78 446.049C2373.89 496.648 2343.81 667.146 2026.06 668.201C1742.47 669.257 1824.26 713.402 1580.42 761.389C1336.57 809.376 991.018 738.727 1043.53 629.947C1096.04 556.798 1049.07 536.383 954.611 418.326Z" stroke="#018BFD" stroke-opacity="0.2" stroke-width="2.5" stroke-linecap="round" stroke-dasharray="10 20"/>
<path d="M1089.53 445.4C1037.29 381.243 1258.21 327.407 1428.45 358.877C1562.8 383.712 1685.93 354.535 1797.73 369.665C2015.54 399.156 1896.48 431.364 2044.61 469.108C2209.31 512.815 2218.67 646.267 1942.22 646.794C1703.72 647.322 1773.55 686.955 1579.21 718.729C1384.88 750.504 1129.98 701.935 1156.24 612.675C1182.49 563.006 1162.39 533.098 1089.53 445.4Z" stroke="#018BFD" stroke-opacity="0.2" stroke-width="2.5" stroke-linecap="round" stroke-dasharray="10 20"/>
<g opacity="0.8">
<g filter="url(#filter0_f_641_15863)">
<path d="M1523.25 1902.88C2098.9 1901.21 2564.75 1620.98 2564.05 1379.23C2563.35 1137.49 2096.12 942.865 1520.47 944.532C1263.26 945.277 998.864 862.149 817.268 927.525C592.433 1008.47 479.038 1251.54 479.425 1385.27C479.78 1507.97 793.866 1646.91 987.784 1725.83C1175.91 1802.39 1239.78 1903.7 1523.25 1902.88Z" fill="#F5710C" fill-opacity="0.2"/>
</g>
<g filter="url(#filter1_f_641_15863)">
<path d="M1670.02 1559.56C2049.98 1558.46 2357.48 1374.6 2357.02 1215.99C2356.56 1057.38 2048.16 929.698 1668.2 930.798C1498.43 931.29 1323.91 876.753 1204.04 919.647C1055.64 972.755 980.785 1132.23 981.039 1219.97C981.272 1300.48 1188.59 1391.63 1316.58 1443.41C1440.76 1493.63 1482.92 1560.1 1670.02 1559.56Z" fill="#F5710C" fill-opacity="0.2"/>
</g>
<g filter="url(#filter2_f_641_15863)">
<path d="M1877.83 1442.58C2209.53 1441.62 2477.98 1287.04 2477.6 1153.72C2477.21 1020.39 2208 913.095 1876.3 914.055C1728.09 914.484 1575.74 868.658 1471.1 904.726C1341.54 949.381 1276.18 1083.44 1276.39 1157.19C1276.59 1224.87 1457.56 1301.47 1569.3 1344.98C1677.69 1387.19 1714.49 1443.05 1877.83 1442.58Z" fill="#F5710C" fill-opacity="0.2"/>
</g>
<g filter="url(#filter3_f_641_15863)">
<ellipse cx="116.378" cy="325.724" rx="116.378" ry="325.724" transform="matrix(0.00289533 0.999996 0.999996 -0.00289533 1752.46 949.041)" fill="#F5710C" fill-opacity="0.2"/>
</g>
</g>
<g opacity="0.8">
<g filter="url(#filter4_f_641_15863)">
<path d="M-755.883 1294.3C-759.227 1062.37 -241.79 866.845 209.093 860.344C659.976 853.843 1028.2 1036.59 1031.54 1268.53C1033.04 1372.16 1191.04 1476.34 1071.15 1551.32C922.705 1644.16 470.628 1696.66 221.203 1700.26C-7.65826 1703.56 -270.312 1580.93 -419.673 1505.03C-564.57 1431.4 -754.236 1408.51 -755.883 1294.3Z" fill="#018BFD" fill-opacity="0.2"/>
</g>
<g filter="url(#filter5_f_641_15863)">
<path d="M-117.214 1225.54C-119.421 1072.45 220.054 943.427 515.874 939.162C811.694 934.897 1053.29 1055.54 1055.5 1208.64C1056.49 1277.04 1160.16 1345.81 1081.5 1395.3C984.113 1456.57 687.513 1491.2 523.867 1493.56C373.714 1495.72 201.382 1414.77 103.383 1364.66C8.31291 1316.05 -116.127 1300.93 -117.214 1225.54Z" fill="#018BFD" fill-opacity="0.2"/>
</g>
<g filter="url(#filter6_f_641_15863)">
<path d="M98.633 1138.55C96.706 1004.91 382.005 892.428 630.666 888.843C879.327 885.257 1082.47 990.692 1084.4 1124.34C1085.26 1184.05 1172.43 1244.14 1106.34 1287.3C1024.5 1340.74 775.202 1370.83 637.644 1372.82C511.427 1374.64 366.529 1303.89 284.129 1260.1C204.192 1217.62 99.5818 1204.36 98.633 1138.55Z" fill="#018BFD" fill-opacity="0.2"/>
</g>
<g filter="url(#filter7_f_641_15863)">
<ellipse cx="801.581" cy="1047.1" rx="217.081" ry="131.25" transform="rotate(179.174 801.581 1047.1)" fill="#018BFD" fill-opacity="0.2"/>
</g>
</g>
</g>
<defs>
<filter id="filter0_f_641_15863" x="59.4238" y="482.434" width="2924.63" height="1840.45" filterUnits="userSpaceOnUse" color-interpolation-filters="sRGB">
<feFlood flood-opacity="0" result="BackgroundImageFix"/>
<feBlend mode="normal" in="SourceGraphic" in2="BackgroundImageFix" result="shape"/>
<feGaussianBlur stdDeviation="210" result="effect1_foregroundBlur_641_15863"/>
</filter>
<filter id="filter1_f_641_15863" x="561.039" y="483.184" width="2215.98" height="1496.38" filterUnits="userSpaceOnUse" color-interpolation-filters="sRGB">
<feFlood flood-opacity="0" result="BackgroundImageFix"/>
<feBlend mode="normal" in="SourceGraphic" in2="BackgroundImageFix" result="shape"/>
<feGaussianBlur stdDeviation="210" result="effect1_foregroundBlur_641_15863"/>
</filter>
<filter id="filter2_f_641_15863" x="856.393" y="470.877" width="2041.21" height="1391.71" filterUnits="userSpaceOnUse" color-interpolation-filters="sRGB">
<feFlood flood-opacity="0" result="BackgroundImageFix"/>
<feBlend mode="normal" in="SourceGraphic" in2="BackgroundImageFix" result="shape"/>
<feGaussianBlur stdDeviation="210" result="effect1_foregroundBlur_641_15863"/>
</filter>
<filter id="filter3_f_641_15863" x="1332.8" y="528.094" width="1491.45" height="1072.76" filterUnits="userSpaceOnUse" color-interpolation-filters="sRGB">
<feFlood flood-opacity="0" result="BackgroundImageFix"/>
<feBlend mode="normal" in="SourceGraphic" in2="BackgroundImageFix" result="shape"/>
<feGaussianBlur stdDeviation="210" result="effect1_foregroundBlur_641_15863"/>
</filter>
<filter id="filter4_f_641_15863" x="-1175.9" y="440.176" width="2711.95" height="1680.15" filterUnits="userSpaceOnUse" color-interpolation-filters="sRGB">
<feFlood flood-opacity="0" result="BackgroundImageFix"/>
<feBlend mode="normal" in="SourceGraphic" in2="BackgroundImageFix" result="shape"/>
<feGaussianBlur stdDeviation="210" result="effect1_foregroundBlur_641_15863"/>
</filter>
<filter id="filter5_f_641_15863" x="-537.225" y="519.053" width="2068.18" height="1394.54" filterUnits="userSpaceOnUse" color-interpolation-filters="sRGB">
<feFlood flood-opacity="0" result="BackgroundImageFix"/>
<feBlend mode="normal" in="SourceGraphic" in2="BackgroundImageFix" result="shape"/>
<feGaussianBlur stdDeviation="210" result="effect1_foregroundBlur_641_15863"/>
</filter>
<filter id="filter6_f_641_15863" x="-321.377" y="468.754" width="1872.45" height="1324.1" filterUnits="userSpaceOnUse" color-interpolation-filters="sRGB">
<feFlood flood-opacity="0" result="BackgroundImageFix"/>
<feBlend mode="normal" in="SourceGraphic" in2="BackgroundImageFix" result="shape"/>
<feGaussianBlur stdDeviation="210" result="effect1_foregroundBlur_641_15863"/>
</filter>
<filter id="filter7_f_641_15863" x="164.514" y="495.822" width="1274.13" height="1102.55" filterUnits="userSpaceOnUse" color-interpolation-filters="sRGB">
<feFlood flood-opacity="0" result="BackgroundImageFix"/>
<feBlend mode="normal" in="SourceGraphic" in2="BackgroundImageFix" result="shape"/>
<feGaussianBlur stdDeviation="210" result="effect1_foregroundBlur_641_15863"/>
</filter>
<clipPath id="clip0_641_15863">
<rect width="1920" height="1080" fill="white"/>
</clipPath>
</defs>
</svg>
