<?xml version="1.0" encoding="UTF-8"?>
<svg version="1.1" xmlns="http://www.w3.org/2000/svg" width="512" height="512">
<path d="M0 0 C143.22 0 286.44 0 434 0 C434 45.21 434 90.42 434 137 C290.78 137 147.56 137 0 137 C0 91.79 0 46.58 0 0 Z M109 38 C107.06413923 41.37230526 106.74554297 44.30967055 106.7253418 48.15405273 C106.71580978 49.15536728 106.70627777 50.15668182 106.69645691 51.18833923 C106.69736832 52.25927322 106.69827972 53.33020721 106.69921875 54.43359375 C106.69493362 55.54428726 106.6906485 56.65498077 106.68623352 57.79933167 C106.68049759 60.14526692 106.67998452 62.49121996 106.68432617 64.8371582 C106.68748549 68.42104507 106.66401898 72.0041058 106.63867188 75.58789062 C106.63639872 77.86979063 106.63569546 80.15169284 106.63671875 82.43359375 C106.627509 83.50250351 106.61829926 84.57141327 106.60881042 85.67271423 C106.63856958 93.28816385 106.63856958 93.28816385 110 100 C114.30067986 102.3300604 118.534098 102.28396161 123.30552673 102.26069641 C124.13861014 102.26452196 124.97169356 102.26834751 125.83002192 102.27228898 C128.61973712 102.28260244 131.40924587 102.27862997 134.19897461 102.2746582 C136.19980561 102.27900558 138.20063494 102.28418881 140.20146179 102.29014587 C145.63529832 102.303544 151.06906532 102.30411366 156.50291514 102.30158257 C161.03833024 102.30051347 165.57373124 102.30539465 170.10914332 102.310188 C180.80804311 102.32128588 191.50690779 102.32171892 202.20581055 102.31567383 C213.2456488 102.30963206 224.28535966 102.32194961 235.32517618 102.3432439 C244.80215834 102.36085201 254.27909993 102.36686252 263.75609785 102.36360615 C269.41692636 102.36179198 275.07766399 102.36444292 280.73847771 102.37832069 C286.06136123 102.39088161 291.38404594 102.38897131 296.70692635 102.37590981 C298.66044303 102.37354074 300.61397363 102.37629049 302.56747437 102.38453293 C305.23437763 102.39497406 307.90061055 102.38692095 310.56748962 102.3742218 C311.72678833 102.38528323 311.72678833 102.38528323 312.90950722 102.39656812 C317.67100411 102.34887514 320.97051736 101.55907293 325 99 C326.93586077 95.62769474 327.25445703 92.69032945 327.2746582 88.84594727 C327.28419022 87.84463272 327.29372223 86.84331818 327.30354309 85.81166077 C327.30263168 84.74072678 327.30172028 83.66979279 327.30078125 82.56640625 C327.30720894 80.90036598 327.30720894 80.90036598 327.31376648 79.20066833 C327.31950241 76.85473308 327.32001548 74.50878004 327.31567383 72.1628418 C327.31251451 68.57895493 327.33598102 64.9958942 327.36132812 61.41210938 C327.36360128 59.13020937 327.36430454 56.84830716 327.36328125 54.56640625 C327.37709587 52.96304161 327.37709587 52.96304161 327.39118958 51.32728577 C327.36143042 43.71183615 327.36143042 43.71183615 324 37 C319.69932014 34.6699396 315.465902 34.71603839 310.69447327 34.73930359 C309.86138986 34.73547804 309.02830644 34.73165249 308.16997808 34.72771102 C305.38026288 34.71739756 302.59075413 34.72137003 299.80102539 34.7253418 C297.80019439 34.72099442 295.79936506 34.71581119 293.79853821 34.70985413 C288.36470168 34.696456 282.93093468 34.69588634 277.49708486 34.69841743 C272.96166976 34.69948653 268.42626876 34.69460535 263.89085668 34.689812 C253.19195689 34.67871412 242.49309221 34.67828108 231.79418945 34.68432617 C220.7543512 34.69036794 209.71464034 34.67805039 198.67482382 34.6567561 C189.19784166 34.63914799 179.72090007 34.63313748 170.24390215 34.63639385 C164.58307364 34.63820802 158.92233601 34.63555708 153.26152229 34.62167931 C147.93863877 34.60911839 142.61595406 34.61102869 137.29307365 34.62409019 C135.33955697 34.62645926 133.38602637 34.62370951 131.43252563 34.61546707 C128.76562237 34.60502594 126.09938945 34.61307905 123.43251038 34.6257782 C122.65964457 34.61840391 121.88677877 34.61102963 121.09049278 34.60343188 C116.32899589 34.65112486 113.02948264 35.44092707 109 38 Z " fill="#000000" transform="translate(39,374)"/>
<path d="M0 0 C168.3 0 336.6 0 510 0 C510 8.91 510 17.82 510 27 C341.7 27 173.4 27 0 27 C0 18.09 0 9.18 0 0 Z " fill="#000000" transform="translate(1,289)"/>
<path d="M0 0 C143.22 0 286.44 0 434 0 C434 8.58 434 17.16 434 26 C290.78 26 147.56 26 0 26 C0 17.42 0 8.84 0 0 Z " fill="#000000" transform="translate(39,332)"/>
<path d="M0 0 C62.04 0 124.08 0 188 0 C188 11.55 188 23.1 188 35 C125.96 35 63.92 35 0 35 C0 23.45 0 11.9 0 0 Z " fill="#000000" transform="translate(162,425)"/>
<path d="M0 0 C26.73 0 53.46 0 81 0 C85.50114704 11.25286761 85.50114704 11.25286761 86.92285156 15.50976562 C87.24288147 16.46355103 87.56291138 17.41733643 87.89263916 18.40002441 C88.22197449 19.39207886 88.55130981 20.3841333 88.890625 21.40625 C89.24010193 22.45276733 89.58957886 23.49928467 89.949646 24.57751465 C90.68046931 26.76863342 91.40980119 28.96025016 92.13769531 31.15234375 C93.25656189 34.51974904 94.38188969 37.88494832 95.5078125 41.25 C96.21913528 43.38528836 96.93008633 45.52070059 97.640625 47.65625 C98.14677338 49.16862244 98.14677338 49.16862244 98.66314697 50.71154785 C99.12427887 52.10440002 99.12427887 52.10440002 99.59472656 53.52539062 C99.86690002 54.3435022 100.13907349 55.16161377 100.41949463 56.0045166 C101 58 101 58 101 60 C67.67 60 34.34 60 0 60 C0 40.2 0 20.4 0 0 Z " fill="#000000" transform="translate(400,1)"/>
<path d="M0 0 C26.07 0 52.14 0 79 0 C79 19.8 79 39.6 79 60 C46.33 60 13.66 60 -20 60 C-13.4961499 39.9464622 -6.92582289 19.9117408 0 0 Z " fill="#000000" transform="translate(33,1)"/>
<path d="M0 0 C25.74 0 51.48 0 78 0 C78 19.8 78 39.6 78 60 C52.26 60 26.52 60 0 60 C0 40.2 0 20.4 0 0 Z " fill="#000000" transform="translate(306,1)"/>
<path d="M0 0 C25.41 0 50.82 0 77 0 C77 19.8 77 39.6 77 60 C51.59 60 26.18 60 0 60 C0 40.2 0 20.4 0 0 Z " fill="#000000" transform="translate(213,1)"/>
<path d="M0 0 C14.52 0 29.04 0 44 0 C44 33.66 44 67.32 44 102 C29.48 102 14.96 102 0 102 C0 68.34 0 34.68 0 0 Z " fill="#000000" transform="translate(341,171)"/>
<path d="M0 0 C14.52 0 29.04 0 44 0 C44 33.66 44 67.32 44 102 C29.48 102 14.96 102 0 102 C0 68.34 0 34.68 0 0 Z " fill="#000000" transform="translate(163,171)"/>
<path d="M0 0 C22.77 0 45.54 0 69 0 C69 19.8 69 39.6 69 60 C46.23 60 23.46 60 0 60 C0 40.2 0 20.4 0 0 Z " fill="#000000" transform="translate(128,1)"/>
<path d="M0 0 C5.94 0 11.88 0 18 0 C18 64.68 18 129.36 18 196 C12.06 196 6.12 196 0 196 C0 131.32 0 66.64 0 0 Z " fill="#000000" transform="translate(451,77)"/>
<path d="M0 0 C5.94 0 11.88 0 18 0 C18 64.68 18 129.36 18 196 C12.06 196 6.12 196 0 196 C0 131.32 0 66.64 0 0 Z " fill="#000000" transform="translate(43,77)"/>
<path d="M0 0 C22.77 0 45.54 0 69 0 C69 14.19 69 28.38 69 43 C46.23 43 23.46 43 0 43 C0 28.81 0 14.62 0 0 Z " fill="#000000" transform="translate(78,230)"/>
</svg>
