<svg width="44" height="44" viewBox="0 0 44 44" fill="none" xmlns="http://www.w3.org/2000/svg">
<path d="M22 44C34.1503 44 44 34.1503 44 22C44 9.84974 34.1503 0 22 0C9.84974 0 0 9.84974 0 22C0 34.1503 9.84974 44 22 44Z" fill="#007AB9"/>
<path d="M35.1447 23.7723V32.8424H29.8861V24.3801C29.8861 22.2554 29.1269 20.8043 27.2229 20.8043C25.7699 20.8043 24.9067 21.7812 24.5255 22.7271C24.3871 23.0652 24.3514 23.5346 24.3514 24.0087V32.842H19.0924C19.0924 32.842 19.163 18.5097 19.0924 17.0261H24.3518V19.2674C24.3412 19.285 24.3263 19.3023 24.3169 19.3192H24.3518V19.2674C25.0507 18.1921 26.297 16.6548 29.0912 16.6548C32.5509 16.6548 35.1447 18.9152 35.1447 23.7723ZM13.591 9.40234C11.7921 9.40234 10.6152 10.5832 10.6152 12.1346C10.6152 13.6531 11.758 14.868 13.522 14.868H13.5561C15.3903 14.868 16.5307 13.6531 16.5307 12.1346C16.4958 10.5832 15.3903 9.40234 13.591 9.40234ZM10.9278 32.8424H16.1848V17.0261H10.9278V32.8424Z" fill="#F1F2F2"/>
</svg>
