<svg width="1619" height="1474" viewBox="0 0 1619 1474" fill="none" xmlns="http://www.w3.org/2000/svg">
<g opacity="0.5" filter="url(#filter0_d_5057_35508)">
<path opacity="0.0526316" d="M1487.63 487.21C1450.44 453.048 1338.84 402.023 1189.87 471.22C1003.67 557.716 949.211 732.389 786.757 839.649C666.853 918.815 335.336 1056.49 124.865 976.082" stroke="url(#paint0_linear_5057_35508)" stroke-opacity="0.6" stroke-width="2" stroke-dasharray="6 6"/>
<path opacity="0.105263" d="M1512.04 549.543C1479.19 512.006 1374.56 450.73 1218.73 505.923C1023.94 574.914 949.398 744.117 775.718 836.03C647.529 903.869 302.662 1010.42 103.467 910.641" stroke="url(#paint1_linear_5057_35508)" stroke-opacity="0.6" stroke-width="2" stroke-dasharray="6 6"/>
<path opacity="0.157895" d="M1527.84 617.054C1499.7 576.554 1403.17 505.7 1242.19 546.284C1040.96 597.014 947.144 758.892 764.141 834.452C629.071 890.22 274.632 964.474 88.8942 846.424" stroke="url(#paint2_linear_5057_35508)" stroke-opacity="0.6" stroke-width="2" stroke-dasharray="6 6"/>
<path opacity="0.210526" d="M1535.62 683.062C1512.49 640.043 1425.13 560.385 1260.76 585.916C1055.29 617.83 943.228 770.61 752.907 828.988C612.436 872.075 252.309 913.221 82.0639 778.189" stroke="url(#paint3_linear_5057_35508)" stroke-opacity="0.6" stroke-width="2" stroke-dasharray="6 6"/>
<path opacity="0.263158" d="M1535.33 750.871C1517.46 705.803 1440.23 618.216 1274.26 628.413C1066.81 641.16 937.73 783.17 742.177 823.726C597.844 853.66 235.974 861.247 83.087 710.714" stroke="url(#paint4_linear_5057_35508)" stroke-opacity="0.6" stroke-width="2" stroke-dasharray="6 6"/>
<path opacity="0.315789" d="M1527.34 817.148C1514.93 770.525 1448.67 675.968 1282.94 670.721C1075.77 664.161 931.089 793.843 732.445 816.134C585.832 832.587 226.183 806.532 92.3294 642.146" stroke="url(#paint5_linear_5057_35508)" stroke-opacity="0.6" stroke-width="2" stroke-dasharray="6 6"/>
<path opacity="0.368421" d="M1511.63 885.189C1504.81 837.523 1450.26 737.031 1286.57 716.397C1081.95 690.603 923.252 806.537 723.695 810.318C576.407 813.109 222.92 753.697 109.566 577.26" stroke="url(#paint6_linear_5057_35508)" stroke-opacity="0.6" stroke-width="2" stroke-dasharray="6 6"/>
<path opacity="0.421053" d="M1488.77 948.4C1487.62 900.212 1445.36 794.887 1285.51 759.091C1085.69 714.346 914.712 815.262 716.428 800.491C570.08 789.59 226.628 697.472 135.016 510.917" stroke="url(#paint7_linear_5057_35508)" stroke-opacity="0.6" stroke-width="2" stroke-dasharray="6 6"/>
<path opacity="0.473684" d="M1458.71 1010.13C1463.24 961.953 1433.74 852.949 1279.48 802.384C1086.65 739.178 905.261 823.969 710.422 790.81C566.616 766.335 236.963 642.522 168.095 447.892" stroke="url(#paint8_linear_5057_35508)" stroke-opacity="0.6" stroke-width="2" stroke-dasharray="6 6"/>
<path opacity="0.526316" d="M1421.61 1070.43C1431.78 1022.78 1415.36 911.293 1268.37 846.513C1084.64 765.537 894.84 833.276 705.581 782.09C565.894 744.311 253.65 590.158 208.283 389.586" stroke="url(#paint9_linear_5057_35508)" stroke-opacity="0.6" stroke-width="2" stroke-dasharray="6 6"/>
<path opacity="0.578947" d="M1373.99 1125.98C1389.68 1079.39 1386.52 966.635 1248.43 888.35C1075.81 790.493 879.666 840.436 698.06 771.785C564.022 721.115 272.609 538.311 251.238 333.995" stroke="url(#paint10_linear_5057_35508)" stroke-opacity="0.6" stroke-width="2" stroke-dasharray="6 6"/>
<path opacity="0.631579" d="M1323.69 1176.99C1344.72 1131.96 1354.86 1019.18 1227.17 928.25C1067.55 814.584 867.223 846.185 695.26 760.82C568.339 697.815 300.949 488.363 303.81 282.541" stroke="url(#paint11_linear_5057_35508)" stroke-opacity="0.6" stroke-width="2" stroke-dasharray="6 6"/>
<path opacity="0.684211" d="M1266.96 1223.47C1293.11 1180.5 1316.44 1068.93 1200.55 966.345C1055.69 838.114 853.36 851.027 692.924 749.885C574.511 675.234 334.075 441.428 361.135 236.356" stroke="url(#paint12_linear_5057_35508)" stroke-opacity="0.6" stroke-width="2" stroke-dasharray="6 6"/>
<path opacity="0.736842" d="M1207.59 1268.9C1238.57 1228.47 1274.84 1119.32 1172.02 1006.21C1043.49 864.821 841.387 858.903 694.236 743.091C585.628 657.613 374.779 402.015 425.742 199.939" stroke="url(#paint13_linear_5057_35508)" stroke-opacity="0.6" stroke-width="2" stroke-dasharray="6 6"/>
<path opacity="0.789474" d="M1142.66 1300.08C1178.13 1262.62 1226.93 1157.1 1138.31 1034.7C1027.53 881.7 827.86 857.017 695.606 727.804C597.993 632.435 419.042 357.846 493.35 160.98" stroke="url(#paint14_linear_5057_35508)" stroke-opacity="0.6" stroke-width="2" stroke-dasharray="6 6"/>
<path opacity="0.842105" d="M1071.23 1333.69C1110.81 1299.61 1171.6 1198.88 1098.15 1068.53C1006.33 905.597 811.289 862.419 695.382 721.221C609.834 617.006 464.741 326.435 561.58 136.935" stroke="url(#paint15_linear_5057_35508)" stroke-opacity="0.6" stroke-width="2" stroke-dasharray="6 6"/>
<path opacity="0.894737" d="M998.256 1353.36C1041.5 1323.05 1113.63 1228.19 1056.15 1091.33C984.302 920.246 796.017 859.046 697.726 707.41C625.18 595.491 515.535 292.12 633.843 112.063" stroke="url(#paint16_linear_5057_35508)" stroke-opacity="0.6" stroke-width="2" stroke-dasharray="6 6"/>
<path opacity="0.947368" d="M922.964 1372.49C969.408 1346.27 1052.08 1258.34 1011.2 1116.45C960.105 939.098 780.645 860.547 701.046 700.134C642.297 581.737 569.301 268.89 707.783 100.25" stroke="url(#paint17_linear_5057_35508)" stroke-opacity="0.6" stroke-width="2" stroke-dasharray="6 6"/>
<path d="M849.87 1381.31C899.001 1359.46 991.308 1279.43 967.482 1134.07C937.7 952.387 769.029 857.345 708.996 689.913C664.687 566.335 629.14 247.441 786.278 92.0638" stroke="url(#paint18_linear_5057_35508)" stroke-opacity="0.6" stroke-width="2" stroke-dasharray="6 6"/>
</g>
<defs>
<filter id="filter0_d_5057_35508" x="77.4424" y="91.3525" width="1463.06" height="1298.88" filterUnits="userSpaceOnUse" color-interpolation-filters="sRGB">
<feFlood flood-opacity="0" result="BackgroundImageFix"/>
<feColorMatrix in="SourceAlpha" type="matrix" values="0 0 0 0 0 0 0 0 0 0 0 0 0 0 0 0 0 0 127 0" result="hardAlpha"/>
<feOffset dy="4"/>
<feGaussianBlur stdDeviation="2"/>
<feComposite in2="hardAlpha" operator="out"/>
<feColorMatrix type="matrix" values="0 0 0 0 0 0 0 0 0 0 0 0 0 0 0 0 0 0 0.25 0"/>
<feBlend mode="normal" in2="BackgroundImageFix" result="effect1_dropShadow_5057_35508"/>
<feBlend mode="normal" in="SourceGraphic" in2="effect1_dropShadow_5057_35508" result="shape"/>
</filter>
<linearGradient id="paint0_linear_5057_35508" x1="765.413" y1="652.346" x2="841.082" y2="829.453" gradientUnits="userSpaceOnUse">
<stop/>
<stop offset="0.317303" stop-color="white" stop-opacity="0.6"/>
<stop offset="0.644234"/>
<stop offset="0.841354" stop-color="white" stop-opacity="0.8"/>
<stop offset="1" stop-color="#666666" stop-opacity="0.9"/>
</linearGradient>
<linearGradient id="paint1_linear_5057_35508" x1="776.603" y1="647.183" x2="834.964" y2="829.565" gradientUnits="userSpaceOnUse">
<stop/>
<stop offset="0.317303" stop-color="white" stop-opacity="0.6"/>
<stop offset="0.644234"/>
<stop offset="0.841354" stop-color="white" stop-opacity="0.8"/>
<stop offset="1" stop-color="#666666" stop-opacity="0.9"/>
</linearGradient>
<linearGradient id="paint2_linear_5057_35508" x1="787.245" y1="646.131" x2="828.232" y2="832.497" gradientUnits="userSpaceOnUse">
<stop/>
<stop offset="0.317303" stop-color="white" stop-opacity="0.6"/>
<stop offset="0.644234"/>
<stop offset="0.841354" stop-color="white" stop-opacity="0.8"/>
<stop offset="1" stop-color="#666666" stop-opacity="0.9"/>
</linearGradient>
<linearGradient id="paint3_linear_5057_35508" x1="797.977" y1="643.257" x2="821.496" y2="832.394" gradientUnits="userSpaceOnUse">
<stop/>
<stop offset="0.317303" stop-color="white" stop-opacity="0.6"/>
<stop offset="0.644234"/>
<stop offset="0.841354" stop-color="white" stop-opacity="0.8"/>
<stop offset="1" stop-color="#666666" stop-opacity="0.9"/>
</linearGradient>
<linearGradient id="paint4_linear_5057_35508" x1="808.719" y1="642.619" x2="814.622" y2="833.347" gradientUnits="userSpaceOnUse">
<stop/>
<stop offset="0.317303" stop-color="white" stop-opacity="0.6"/>
<stop offset="0.644234"/>
<stop offset="0.841354" stop-color="white" stop-opacity="0.8"/>
<stop offset="1" stop-color="#666666" stop-opacity="0.9"/>
</linearGradient>
<linearGradient id="paint5_linear_5057_35508" x1="819.729" y1="641.635" x2="807.814" y2="832.756" gradientUnits="userSpaceOnUse">
<stop/>
<stop offset="0.317303" stop-color="white" stop-opacity="0.6"/>
<stop offset="0.644234"/>
<stop offset="0.841354" stop-color="white" stop-opacity="0.8"/>
<stop offset="1" stop-color="#666666" stop-opacity="0.9"/>
</linearGradient>
<linearGradient id="paint6_linear_5057_35508" x1="830.765" y1="644.339" x2="800.776" y2="834.585" gradientUnits="userSpaceOnUse">
<stop/>
<stop offset="0.317303" stop-color="white" stop-opacity="0.6"/>
<stop offset="0.644234"/>
<stop offset="0.841354" stop-color="white" stop-opacity="0.8"/>
<stop offset="1" stop-color="#666666" stop-opacity="0.9"/>
</linearGradient>
<linearGradient id="paint7_linear_5057_35508" x1="842.112" y1="644.851" x2="793.769" y2="832.835" gradientUnits="userSpaceOnUse">
<stop/>
<stop offset="0.317303" stop-color="white" stop-opacity="0.6"/>
<stop offset="0.644234"/>
<stop offset="0.841354" stop-color="white" stop-opacity="0.8"/>
<stop offset="1" stop-color="#666666" stop-opacity="0.9"/>
</linearGradient>
<linearGradient id="paint8_linear_5057_35508" x1="853.342" y1="647.213" x2="786.375" y2="831.385" gradientUnits="userSpaceOnUse">
<stop/>
<stop offset="0.317303" stop-color="white" stop-opacity="0.6"/>
<stop offset="0.644234"/>
<stop offset="0.841354" stop-color="white" stop-opacity="0.8"/>
<stop offset="1" stop-color="#666666" stop-opacity="0.9"/>
</linearGradient>
<linearGradient id="paint9_linear_5057_35508" x1="864.172" y1="652.11" x2="778.374" y2="830.718" gradientUnits="userSpaceOnUse">
<stop/>
<stop offset="0.317303" stop-color="white" stop-opacity="0.6"/>
<stop offset="0.644234"/>
<stop offset="0.841354" stop-color="white" stop-opacity="0.8"/>
<stop offset="1" stop-color="#666666" stop-opacity="0.9"/>
</linearGradient>
<linearGradient id="paint10_linear_5057_35508" x1="870.584" y1="656.846" x2="765.888" y2="827.909" gradientUnits="userSpaceOnUse">
<stop/>
<stop offset="0.317303" stop-color="white" stop-opacity="0.6"/>
<stop offset="0.644234"/>
<stop offset="0.841354" stop-color="white" stop-opacity="0.8"/>
<stop offset="1" stop-color="#666666" stop-opacity="0.9"/>
</linearGradient>
<linearGradient id="paint11_linear_5057_35508" x1="879.826" y1="662.182" x2="756.39" y2="823.492" gradientUnits="userSpaceOnUse">
<stop/>
<stop offset="0.317303" stop-color="white" stop-opacity="0.6"/>
<stop offset="0.644234"/>
<stop offset="0.841354" stop-color="white" stop-opacity="0.8"/>
<stop offset="1" stop-color="#666666" stop-opacity="0.9"/>
</linearGradient>
<linearGradient id="paint12_linear_5057_35508" x1="887.511" y1="668.628" x2="745.815" y2="817.768" gradientUnits="userSpaceOnUse">
<stop/>
<stop offset="0.317303" stop-color="white" stop-opacity="0.6"/>
<stop offset="0.644234"/>
<stop offset="0.841354" stop-color="white" stop-opacity="0.8"/>
<stop offset="1" stop-color="#666666" stop-opacity="0.9"/>
</linearGradient>
<linearGradient id="paint13_linear_5057_35508" x1="896.712" y1="680.105" x2="737.661" y2="814.522" gradientUnits="userSpaceOnUse">
<stop/>
<stop offset="0.317303" stop-color="white" stop-opacity="0.6"/>
<stop offset="0.644234"/>
<stop offset="0.841354" stop-color="white" stop-opacity="0.8"/>
<stop offset="1" stop-color="#666666" stop-opacity="0.9"/>
</linearGradient>
<linearGradient id="paint14_linear_5057_35508" x1="903.752" y1="683.78" x2="728.762" y2="800.878" gradientUnits="userSpaceOnUse">
<stop/>
<stop offset="0.317303" stop-color="white" stop-opacity="0.6"/>
<stop offset="0.644234"/>
<stop offset="0.841354" stop-color="white" stop-opacity="0.8"/>
<stop offset="1" stop-color="#666666" stop-opacity="0.9"/>
</linearGradient>
<linearGradient id="paint15_linear_5057_35508" x1="906.918" y1="696.641" x2="717.968" y2="793.933" gradientUnits="userSpaceOnUse">
<stop/>
<stop offset="0.317303" stop-color="white" stop-opacity="0.6"/>
<stop offset="0.644234"/>
<stop offset="0.841354" stop-color="white" stop-opacity="0.8"/>
<stop offset="1" stop-color="#666666" stop-opacity="0.9"/>
</linearGradient>
<linearGradient id="paint16_linear_5057_35508" x1="910.334" y1="702.543" x2="709.969" y2="777.818" gradientUnits="userSpaceOnUse">
<stop/>
<stop offset="0.317303" stop-color="white" stop-opacity="0.6"/>
<stop offset="0.644234"/>
<stop offset="0.841354" stop-color="white" stop-opacity="0.8"/>
<stop offset="1" stop-color="#666666" stop-opacity="0.9"/>
</linearGradient>
<linearGradient id="paint17_linear_5057_35508" x1="912.397" y1="715.033" x2="703.668" y2="766.532" gradientUnits="userSpaceOnUse">
<stop/>
<stop offset="0.317303" stop-color="white" stop-opacity="0.6"/>
<stop offset="0.644234"/>
<stop offset="0.841354" stop-color="white" stop-opacity="0.8"/>
<stop offset="1" stop-color="#666666" stop-opacity="0.9"/>
</linearGradient>
<linearGradient id="paint18_linear_5057_35508" x1="916.774" y1="724.415" x2="703.108" y2="750.985" gradientUnits="userSpaceOnUse">
<stop/>
<stop offset="0.317303" stop-color="white" stop-opacity="0.6"/>
<stop offset="0.644234"/>
<stop offset="0.841354" stop-color="white" stop-opacity="0.8"/>
<stop offset="1" stop-color="#666666" stop-opacity="0.9"/>
</linearGradient>
</defs>
</svg>
