<svg width="379" height="355" viewBox="0 0 379 355" fill="none" xmlns="http://www.w3.org/2000/svg">
<g clip-path="url(#clip0_5115_55741)">
<g filter="url(#filter0_f_5115_55741)">
<path d="M983 354.5C983 317.664 962.488 281.189 922.636 247.157C882.784 213.125 824.373 182.203 750.736 156.157C677.099 130.11 589.679 109.448 493.468 95.3518C397.257 81.2553 294.138 74 190 74C85.8617 74 -17.2568 81.2554 -113.468 95.3518C-209.679 109.448 -297.099 130.11 -370.736 156.157C-444.373 182.203 -502.785 213.125 -542.636 247.157C-582.488 281.189 -603 317.664 -603 354.5L190 354.5H983Z" fill="url(#paint0_linear_5115_55741)" fill-opacity="0.6"/>
</g>
<g opacity="0.5">
<path opacity="0.0526316" d="M509.621 25.0455C496.108 12.6304 455.549 -5.91287 401.413 19.2343C333.743 50.6683 313.953 114.147 254.914 153.127C211.34 181.897 90.8613 231.93 14.3731 202.709" stroke="url(#paint1_linear_5115_55741)" stroke-opacity="0.6" stroke-dasharray="6 6"/>
<path opacity="0.105263" d="M518.493 47.708C506.558 34.0666 468.53 11.7982 411.9 31.8561C341.113 56.9285 314.022 118.419 250.904 151.822C204.318 176.475 78.9883 215.197 6.59775 178.937" stroke="url(#paint2_linear_5115_55741)" stroke-opacity="0.6" stroke-dasharray="6 6"/>
<path opacity="0.157895" d="M524.235 72.2367C514.009 57.5183 478.929 31.7688 420.426 46.5176C347.297 64.9537 313.202 123.783 246.696 151.242C197.61 171.509 68.8014 198.494 1.30168 155.593" stroke="url(#paint3_linear_5115_55741)" stroke-opacity="0.6" stroke-dasharray="6 6"/>
<path opacity="0.210526" d="M527.068 96.2287C518.662 80.5947 486.915 51.6461 427.18 60.9243C352.51 72.5221 311.785 128.045 242.62 149.26C191.57 164.919 60.6947 179.872 -1.17472 130.799" stroke="url(#paint4_linear_5115_55741)" stroke-opacity="0.6" stroke-dasharray="6 6"/>
<path opacity="0.263158" d="M526.962 120.877C520.468 104.498 492.402 72.6681 432.088 76.374C356.697 81.0064 309.787 132.615 238.72 147.354C186.268 158.232 54.7583 160.989 -0.802971 106.283" stroke="url(#paint5_linear_5115_55741)" stroke-opacity="0.6" stroke-dasharray="6 6"/>
<path opacity="0.315789" d="M524.056 144.954C519.546 128.01 495.467 93.6469 435.237 91.74C359.949 89.3563 307.369 136.485 235.179 144.585C181.898 150.564 51.1959 141.096 2.55146 81.3555" stroke="url(#paint6_linear_5115_55741)" stroke-opacity="0.6" stroke-dasharray="6 6"/>
<path opacity="0.368421" d="M518.345 169.683C515.868 152.36 496.041 115.84 436.554 108.341C362.194 98.9677 304.52 141.1 231.998 142.474C178.472 143.488 50.0093 121.897 8.81472 57.7771" stroke="url(#paint7_linear_5115_55741)" stroke-opacity="0.6" stroke-dasharray="6 6"/>
<path opacity="0.421053" d="M510.039 192.649C509.621 175.137 494.263 136.861 436.171 123.852C363.554 107.591 301.418 144.265 229.359 138.897C176.173 134.936 51.358 101.459 18.0647 33.6618" stroke="url(#paint8_linear_5115_55741)" stroke-opacity="0.6" stroke-dasharray="6 6"/>
<path opacity="0.473684" d="M499.11 215.084C500.757 197.574 490.036 157.96 433.974 139.584C363.897 116.614 297.979 147.429 227.172 135.378C174.911 126.484 55.11 81.4879 30.0826 10.7567" stroke="url(#paint9_linear_5115_55741)" stroke-opacity="0.6" stroke-dasharray="6 6"/>
<path opacity="0.526316" d="M485.631 237.004C489.325 219.689 483.359 179.172 429.943 155.63C363.172 126.202 294.195 150.819 225.415 132.218C174.651 118.488 61.1769 62.4666 44.6897 -10.424" stroke="url(#paint10_linear_5115_55741)" stroke-opacity="0.6" stroke-dasharray="6 6"/>
<path opacity="0.578947" d="M468.322 257.184C474.022 240.252 472.876 199.276 422.69 170.826C359.958 135.263 288.677 153.413 222.679 128.464C173.967 110.05 68.0637 43.6166 60.2973 -30.6348" stroke="url(#paint11_linear_5115_55741)" stroke-opacity="0.6" stroke-dasharray="6 6"/>
<path opacity="0.631579" d="M450.047 275.732C457.691 259.37 461.377 218.383 414.972 185.337C356.965 144.029 284.162 155.513 221.668 124.491C175.543 101.594 78.3695 25.4754 79.409 -49.3232" stroke="url(#paint12_linear_5115_55741)" stroke-opacity="0.6" stroke-dasharray="6 6"/>
<path opacity="0.684211" d="M429.431 292.616C438.935 277.002 447.414 236.455 405.297 199.174C352.651 152.573 279.123 157.266 220.818 120.509C177.785 93.38 90.4071 8.41152 100.241 -66.1148" stroke="url(#paint13_linear_5115_55741)" stroke-opacity="0.6" stroke-dasharray="6 6"/>
<path opacity="0.736842" d="M407.854 309.118C419.114 294.424 432.292 254.76 394.926 213.654C348.218 162.27 274.77 160.12 221.293 118.032C181.824 86.968 105.198 -5.91993 123.719 -79.3575" stroke="url(#paint14_linear_5115_55741)" stroke-opacity="0.6" stroke-dasharray="6 6"/>
<path opacity="0.789474" d="M384.258 320.453C397.15 306.839 414.883 268.493 382.676 224.011C342.418 168.408 269.856 159.438 221.793 112.48C186.319 77.8217 121.285 -21.9679 148.29 -93.5121" stroke="url(#paint15_linear_5115_55741)" stroke-opacity="0.6" stroke-dasharray="6 6"/>
<path opacity="0.842105" d="M358.301 332.663C372.684 320.28 394.778 283.671 368.084 236.301C334.716 177.088 263.834 161.397 221.711 110.083C190.622 72.2102 137.893 -33.3878 173.086 -102.255" stroke="url(#paint16_linear_5115_55741)" stroke-opacity="0.6" stroke-dasharray="6 6"/>
<path opacity="0.894737" d="M331.78 339.829C347.497 328.812 373.709 294.341 352.82 244.602C326.709 182.428 258.283 160.187 222.563 105.081C196.199 64.4075 156.352 -45.8419 199.347 -111.277" stroke="url(#paint17_linear_5115_55741)" stroke-opacity="0.6" stroke-dasharray="6 6"/>
<path opacity="0.947368" d="M304.413 346.782C321.292 337.25 351.335 305.297 336.48 253.734C317.911 189.279 252.693 160.733 223.765 102.436C202.415 59.4092 175.887 -54.2838 226.213 -115.57" stroke="url(#paint18_linear_5115_55741)" stroke-opacity="0.6" stroke-dasharray="6 6"/>
<path d="M277.854 349.972C295.709 342.031 329.255 312.944 320.596 260.122C309.773 194.094 248.475 159.554 226.659 98.7066C210.556 53.7967 197.638 -62.0942 254.744 -118.561" stroke="url(#paint19_linear_5115_55741)" stroke-opacity="0.6" stroke-dasharray="6 6"/>
</g>
</g>
<defs>
<filter id="filter0_f_5115_55741" x="-1403" y="-726" width="3186" height="1880.5" filterUnits="userSpaceOnUse" color-interpolation-filters="sRGB">
<feFlood flood-opacity="0" result="BackgroundImageFix"/>
<feBlend mode="normal" in="SourceGraphic" in2="BackgroundImageFix" result="shape"/>
<feGaussianBlur stdDeviation="400" result="effect1_foregroundBlur_5115_55741"/>
</filter>
<linearGradient id="paint0_linear_5115_55741" x1="-603" y1="354.5" x2="983" y2="354.5" gradientUnits="userSpaceOnUse">
<stop stop-color="#F7750C" stop-opacity="0.6"/>
<stop offset="1" stop-color="#17BFDB" stop-opacity="0.6"/>
</linearGradient>
<linearGradient id="paint1_linear_5115_55741" x1="247.158" y1="85.0581" x2="274.657" y2="149.421" gradientUnits="userSpaceOnUse">
<stop/>
<stop offset="0.317303" stop-color="white" stop-opacity="0.6"/>
<stop offset="0.644234"/>
<stop offset="0.841354" stop-color="white" stop-opacity="0.8"/>
<stop offset="1" stop-color="#666666" stop-opacity="0.9"/>
</linearGradient>
<linearGradient id="paint2_linear_5115_55741" x1="251.226" y1="83.1922" x2="272.435" y2="149.473" gradientUnits="userSpaceOnUse">
<stop/>
<stop offset="0.317303" stop-color="white" stop-opacity="0.6"/>
<stop offset="0.644234"/>
<stop offset="0.841354" stop-color="white" stop-opacity="0.8"/>
<stop offset="1" stop-color="#666666" stop-opacity="0.9"/>
</linearGradient>
<linearGradient id="paint3_linear_5115_55741" x1="255.093" y1="82.8036" x2="269.988" y2="150.532" gradientUnits="userSpaceOnUse">
<stop/>
<stop offset="0.317303" stop-color="white" stop-opacity="0.6"/>
<stop offset="0.644234"/>
<stop offset="0.841354" stop-color="white" stop-opacity="0.8"/>
<stop offset="1" stop-color="#666666" stop-opacity="0.9"/>
</linearGradient>
<linearGradient id="paint4_linear_5115_55741" x1="258.999" y1="81.7627" x2="267.546" y2="150.498" gradientUnits="userSpaceOnUse">
<stop/>
<stop offset="0.317303" stop-color="white" stop-opacity="0.6"/>
<stop offset="0.644234"/>
<stop offset="0.841354" stop-color="white" stop-opacity="0.8"/>
<stop offset="1" stop-color="#666666" stop-opacity="0.9"/>
</linearGradient>
<linearGradient id="paint5_linear_5115_55741" x1="262.902" y1="81.5364" x2="265.048" y2="150.85" gradientUnits="userSpaceOnUse">
<stop/>
<stop offset="0.317303" stop-color="white" stop-opacity="0.6"/>
<stop offset="0.644234"/>
<stop offset="0.841354" stop-color="white" stop-opacity="0.8"/>
<stop offset="1" stop-color="#666666" stop-opacity="0.9"/>
</linearGradient>
<linearGradient id="paint6_linear_5115_55741" x1="266.899" y1="81.1699" x2="262.569" y2="150.626" gradientUnits="userSpaceOnUse">
<stop/>
<stop offset="0.317303" stop-color="white" stop-opacity="0.6"/>
<stop offset="0.644234"/>
<stop offset="0.841354" stop-color="white" stop-opacity="0.8"/>
<stop offset="1" stop-color="#666666" stop-opacity="0.9"/>
</linearGradient>
<linearGradient id="paint7_linear_5115_55741" x1="270.909" y1="82.1545" x2="260.011" y2="151.293" gradientUnits="userSpaceOnUse">
<stop/>
<stop offset="0.317303" stop-color="white" stop-opacity="0.6"/>
<stop offset="0.644234"/>
<stop offset="0.841354" stop-color="white" stop-opacity="0.8"/>
<stop offset="1" stop-color="#666666" stop-opacity="0.9"/>
</linearGradient>
<linearGradient id="paint8_linear_5115_55741" x1="275.034" y1="82.3352" x2="257.466" y2="150.651" gradientUnits="userSpaceOnUse">
<stop/>
<stop offset="0.317303" stop-color="white" stop-opacity="0.6"/>
<stop offset="0.644234"/>
<stop offset="0.841354" stop-color="white" stop-opacity="0.8"/>
<stop offset="1" stop-color="#666666" stop-opacity="0.9"/>
</linearGradient>
<linearGradient id="paint9_linear_5115_55741" x1="279.111" y1="83.1927" x2="254.774" y2="150.124" gradientUnits="userSpaceOnUse">
<stop/>
<stop offset="0.317303" stop-color="white" stop-opacity="0.6"/>
<stop offset="0.644234"/>
<stop offset="0.841354" stop-color="white" stop-opacity="0.8"/>
<stop offset="1" stop-color="#666666" stop-opacity="0.9"/>
</linearGradient>
<linearGradient id="paint10_linear_5115_55741" x1="283.049" y1="84.9811" x2="251.869" y2="149.89" gradientUnits="userSpaceOnUse">
<stop/>
<stop offset="0.317303" stop-color="white" stop-opacity="0.6"/>
<stop offset="0.644234"/>
<stop offset="0.841354" stop-color="white" stop-opacity="0.8"/>
<stop offset="1" stop-color="#666666" stop-opacity="0.9"/>
</linearGradient>
<linearGradient id="paint11_linear_5115_55741" x1="285.377" y1="86.6941" x2="247.329" y2="148.861" gradientUnits="userSpaceOnUse">
<stop/>
<stop offset="0.317303" stop-color="white" stop-opacity="0.6"/>
<stop offset="0.644234"/>
<stop offset="0.841354" stop-color="white" stop-opacity="0.8"/>
<stop offset="1" stop-color="#666666" stop-opacity="0.9"/>
</linearGradient>
<linearGradient id="paint12_linear_5115_55741" x1="288.742" y1="88.644" x2="243.883" y2="147.266" gradientUnits="userSpaceOnUse">
<stop/>
<stop offset="0.317303" stop-color="white" stop-opacity="0.6"/>
<stop offset="0.644234"/>
<stop offset="0.841354" stop-color="white" stop-opacity="0.8"/>
<stop offset="1" stop-color="#666666" stop-opacity="0.9"/>
</linearGradient>
<linearGradient id="paint13_linear_5115_55741" x1="291.534" y1="90.9791" x2="240.039" y2="145.179" gradientUnits="userSpaceOnUse">
<stop/>
<stop offset="0.317303" stop-color="white" stop-opacity="0.6"/>
<stop offset="0.644234"/>
<stop offset="0.841354" stop-color="white" stop-opacity="0.8"/>
<stop offset="1" stop-color="#666666" stop-opacity="0.9"/>
</linearGradient>
<linearGradient id="paint14_linear_5115_55741" x1="294.876" y1="95.142" x2="237.075" y2="143.991" gradientUnits="userSpaceOnUse">
<stop/>
<stop offset="0.317303" stop-color="white" stop-opacity="0.6"/>
<stop offset="0.644234"/>
<stop offset="0.841354" stop-color="white" stop-opacity="0.8"/>
<stop offset="1" stop-color="#666666" stop-opacity="0.9"/>
</linearGradient>
<linearGradient id="paint15_linear_5115_55741" x1="297.436" y1="96.4812" x2="233.842" y2="139.036" gradientUnits="userSpaceOnUse">
<stop/>
<stop offset="0.317303" stop-color="white" stop-opacity="0.6"/>
<stop offset="0.644234"/>
<stop offset="0.841354" stop-color="white" stop-opacity="0.8"/>
<stop offset="1" stop-color="#666666" stop-opacity="0.9"/>
</linearGradient>
<linearGradient id="paint16_linear_5115_55741" x1="298.587" y1="101.151" x2="229.919" y2="136.508" gradientUnits="userSpaceOnUse">
<stop/>
<stop offset="0.317303" stop-color="white" stop-opacity="0.6"/>
<stop offset="0.644234"/>
<stop offset="0.841354" stop-color="white" stop-opacity="0.8"/>
<stop offset="1" stop-color="#666666" stop-opacity="0.9"/>
</linearGradient>
<linearGradient id="paint17_linear_5115_55741" x1="299.828" y1="103.312" x2="227.012" y2="130.668" gradientUnits="userSpaceOnUse">
<stop/>
<stop offset="0.317303" stop-color="white" stop-opacity="0.6"/>
<stop offset="0.644234"/>
<stop offset="0.841354" stop-color="white" stop-opacity="0.8"/>
<stop offset="1" stop-color="#666666" stop-opacity="0.9"/>
</linearGradient>
<linearGradient id="paint18_linear_5115_55741" x1="300.573" y1="107.851" x2="224.718" y2="126.567" gradientUnits="userSpaceOnUse">
<stop/>
<stop offset="0.317303" stop-color="white" stop-opacity="0.6"/>
<stop offset="0.644234"/>
<stop offset="0.841354" stop-color="white" stop-opacity="0.8"/>
<stop offset="1" stop-color="#666666" stop-opacity="0.9"/>
</linearGradient>
<linearGradient id="paint19_linear_5115_55741" x1="302.168" y1="111.245" x2="224.519" y2="120.901" gradientUnits="userSpaceOnUse">
<stop/>
<stop offset="0.317303" stop-color="white" stop-opacity="0.6"/>
<stop offset="0.644234"/>
<stop offset="0.841354" stop-color="white" stop-opacity="0.8"/>
<stop offset="1" stop-color="#666666" stop-opacity="0.9"/>
</linearGradient>
<clipPath id="clip0_5115_55741">
<rect width="379" height="355" fill="white"/>
</clipPath>
</defs>
</svg>
