<svg width="1920" height="378" viewBox="0 0 1920 378" fill="none" xmlns="http://www.w3.org/2000/svg">
<g clip-path="url(#clip0_4887_33157)">
<g filter="url(#filter0_f_4887_33157)">
<path d="M1753 377.5C1753 340.664 1732.49 304.189 1692.64 270.157C1652.78 236.125 1594.37 205.203 1520.74 179.157C1447.1 153.11 1359.68 132.448 1263.47 118.352C1167.26 104.255 1064.14 97 960 97C855.862 97 752.743 104.255 656.532 118.352C560.321 132.448 472.901 153.11 399.264 179.157C325.627 205.203 267.215 236.125 227.364 270.157C187.512 304.189 167 340.664 167 377.5L960 377.5H1753Z" fill="url(#paint0_linear_4887_33157)" fill-opacity="0.6"/>
</g>
<g opacity="0.5">
<path opacity="0.0526316" d="M1788.67 -61.0474C1751.49 -95.2096 1639.89 -146.235 1490.92 -77.0379C1304.72 9.45824 1250.26 184.131 1087.81 291.391C967.902 370.557 636.384 508.233 425.914 427.824" stroke="url(#paint1_linear_4887_33157)" stroke-opacity="0.6" stroke-width="2" stroke-dasharray="6 6"/>
<path opacity="0.105263" d="M1813.08 1.28571C1780.24 -36.2511 1675.6 -97.5266 1519.78 -42.3338C1324.99 26.6573 1250.45 195.86 1076.77 287.773C948.578 355.612 603.71 462.16 404.515 362.384" stroke="url(#paint2_linear_4887_33157)" stroke-opacity="0.6" stroke-width="2" stroke-dasharray="6 6"/>
<path opacity="0.157895" d="M1828.89 68.7975C1800.75 28.2973 1704.22 -42.5571 1543.24 -1.97299C1342.01 48.7571 1248.19 210.636 1065.19 286.195C930.119 341.963 575.68 416.217 389.942 298.167" stroke="url(#paint3_linear_4887_33157)" stroke-opacity="0.6" stroke-width="2" stroke-dasharray="6 6"/>
<path opacity="0.210526" d="M1836.67 134.806C1813.53 91.7857 1726.18 12.1286 1561.81 37.6593C1356.34 69.5727 1244.28 222.354 1053.96 280.731C913.485 323.818 553.357 364.964 383.112 229.933" stroke="url(#paint4_linear_4887_33157)" stroke-opacity="0.6" stroke-width="2" stroke-dasharray="6 6"/>
<path opacity="0.263158" d="M1836.37 202.615C1818.5 157.547 1741.28 69.96 1575.31 80.1576C1367.86 92.9046 1238.78 234.914 1043.23 275.47C898.893 305.404 537.022 312.991 384.135 162.458" stroke="url(#paint5_linear_4887_33157)" stroke-opacity="0.6" stroke-width="2" stroke-dasharray="6 6"/>
<path opacity="0.315789" d="M1828.39 268.891C1815.98 222.268 1749.72 127.711 1583.99 122.464C1376.82 115.905 1232.14 245.587 1033.49 267.877C886.88 284.33 527.231 258.275 393.378 93.889" stroke="url(#paint6_linear_4887_33157)" stroke-opacity="0.6" stroke-width="2" stroke-dasharray="6 6"/>
<path opacity="0.368421" d="M1812.68 336.932C1805.86 289.266 1751.3 188.775 1587.61 168.14C1383 142.347 1224.3 258.28 1024.74 262.061C877.455 264.852 523.969 205.44 410.614 29.0035" stroke="url(#paint7_linear_4887_33157)" stroke-opacity="0.6" stroke-width="2" stroke-dasharray="6 6"/>
<path opacity="0.421053" d="M1789.82 400.143C1788.67 351.955 1746.41 246.63 1586.56 210.834C1386.74 166.089 1215.76 267.005 1017.48 252.234C871.128 241.333 527.676 149.216 436.064 -37.3396" stroke="url(#paint8_linear_4887_33157)" stroke-opacity="0.6" stroke-width="2" stroke-dasharray="6 6"/>
<path opacity="0.473684" d="M1759.75 461.878C1764.29 413.697 1734.79 304.692 1580.52 254.127C1387.69 190.921 1206.31 275.713 1011.47 242.553C867.664 218.079 538.011 94.2649 469.144 -100.365" stroke="url(#paint9_linear_4887_33157)" stroke-opacity="0.6" stroke-width="2" stroke-dasharray="6 6"/>
<path opacity="0.526316" d="M1722.66 522.173C1732.82 474.526 1716.41 363.037 1569.42 298.257C1385.69 217.282 1195.89 285.02 1006.63 233.834C866.942 196.055 554.699 41.9017 509.331 -158.67" stroke="url(#paint10_linear_4887_33157)" stroke-opacity="0.6" stroke-width="2" stroke-dasharray="6 6"/>
<path opacity="0.578947" d="M1675.04 577.723C1690.72 531.132 1687.57 418.379 1549.48 340.094C1376.86 242.237 1180.71 292.18 999.109 223.529C865.07 172.859 573.657 -9.94519 552.287 -214.261" stroke="url(#paint11_linear_4887_33157)" stroke-opacity="0.6" stroke-width="2" stroke-dasharray="6 6"/>
<path opacity="0.631579" d="M1624.73 628.728C1645.76 583.705 1655.91 470.924 1528.22 379.991C1368.6 266.324 1168.27 297.925 996.305 212.561C869.384 149.555 601.995 -59.8971 604.855 -265.719" stroke="url(#paint12_linear_4887_33157)" stroke-opacity="0.6" stroke-width="2" stroke-dasharray="6 6"/>
<path opacity="0.684211" d="M1568 675.205C1594.16 632.241 1617.49 520.668 1501.6 418.083C1356.73 289.853 1154.41 302.765 993.97 201.623C875.556 126.972 635.12 -106.834 662.18 -311.906" stroke="url(#paint13_linear_4887_33157)" stroke-opacity="0.6" stroke-width="2" stroke-dasharray="6 6"/>
<path opacity="0.736842" d="M1508.64 720.639C1539.62 680.206 1575.88 571.063 1473.06 457.951C1344.54 316.561 1142.43 310.643 995.28 194.831C886.672 109.353 675.823 -146.244 726.786 -348.321" stroke="url(#paint14_linear_4887_33157)" stroke-opacity="0.6" stroke-width="2" stroke-dasharray="6 6"/>
<path opacity="0.789474" d="M1443.7 751.816C1479.18 714.357 1527.97 608.839 1439.35 486.439C1328.57 333.439 1128.9 308.756 996.651 179.543C899.038 84.1744 720.087 -190.414 794.395 -387.281" stroke="url(#paint15_linear_4887_33157)" stroke-opacity="0.6" stroke-width="2" stroke-dasharray="6 6"/>
<path opacity="0.842105" d="M1372.28 785.429C1411.86 751.354 1472.65 650.618 1399.2 520.271C1307.38 357.337 1112.33 314.159 996.427 172.961C910.878 68.7465 765.785 -221.825 862.624 -411.325" stroke="url(#paint16_linear_4887_33157)" stroke-opacity="0.6" stroke-width="2" stroke-dasharray="6 6"/>
<path opacity="0.894737" d="M1299.3 805.101C1342.55 774.784 1414.68 679.934 1357.2 543.067C1285.35 371.985 1097.06 310.785 998.771 159.149C926.224 47.23 816.579 -256.141 934.887 -436.197" stroke="url(#paint17_linear_4887_33157)" stroke-opacity="0.6" stroke-width="2" stroke-dasharray="6 6"/>
<path opacity="0.947368" d="M1224.01 824.235C1270.46 798.008 1353.13 710.081 1312.25 568.196C1261.16 390.839 1081.69 312.288 1002.1 151.875C943.347 33.478 870.351 -279.368 1008.83 -448.009" stroke="url(#paint18_linear_4887_33157)" stroke-opacity="0.6" stroke-width="2" stroke-dasharray="6 6"/>
<path d="M1150.92 833.055C1200.05 811.205 1292.36 731.167 1268.53 585.816C1238.75 404.128 1070.08 309.087 1010.05 141.654C965.738 18.0763 930.191 -300.818 1087.33 -456.195" stroke="url(#paint19_linear_4887_33157)" stroke-opacity="0.6" stroke-width="2" stroke-dasharray="6 6"/>
</g>
</g>
<defs>
<filter id="filter0_f_4887_33157" x="-633" y="-703" width="3186" height="1880.5" filterUnits="userSpaceOnUse" color-interpolation-filters="sRGB">
<feFlood flood-opacity="0" result="BackgroundImageFix"/>
<feBlend mode="normal" in="SourceGraphic" in2="BackgroundImageFix" result="shape"/>
<feGaussianBlur stdDeviation="400" result="effect1_foregroundBlur_4887_33157"/>
</filter>
<linearGradient id="paint0_linear_4887_33157" x1="167" y1="377.5" x2="1753" y2="377.5" gradientUnits="userSpaceOnUse">
<stop stop-color="#F7750C" stop-opacity="0.6"/>
<stop offset="1" stop-color="#17BFDB" stop-opacity="0.6"/>
</linearGradient>
<linearGradient id="paint1_linear_4887_33157" x1="1066.46" y1="104.088" x2="1142.13" y2="281.195" gradientUnits="userSpaceOnUse">
<stop/>
<stop offset="0.317303" stop-color="white" stop-opacity="0.6"/>
<stop offset="0.644234"/>
<stop offset="0.841354" stop-color="white" stop-opacity="0.8"/>
<stop offset="1" stop-color="#666666" stop-opacity="0.9"/>
</linearGradient>
<linearGradient id="paint2_linear_4887_33157" x1="1077.65" y1="98.9266" x2="1136.01" y2="281.309" gradientUnits="userSpaceOnUse">
<stop/>
<stop offset="0.317303" stop-color="white" stop-opacity="0.6"/>
<stop offset="0.644234"/>
<stop offset="0.841354" stop-color="white" stop-opacity="0.8"/>
<stop offset="1" stop-color="#666666" stop-opacity="0.9"/>
</linearGradient>
<linearGradient id="paint3_linear_4887_33157" x1="1088.29" y1="97.8744" x2="1129.28" y2="284.24" gradientUnits="userSpaceOnUse">
<stop/>
<stop offset="0.317303" stop-color="white" stop-opacity="0.6"/>
<stop offset="0.644234"/>
<stop offset="0.841354" stop-color="white" stop-opacity="0.8"/>
<stop offset="1" stop-color="#666666" stop-opacity="0.9"/>
</linearGradient>
<linearGradient id="paint4_linear_4887_33157" x1="1099.02" y1="94.9997" x2="1122.54" y2="284.137" gradientUnits="userSpaceOnUse">
<stop/>
<stop offset="0.317303" stop-color="white" stop-opacity="0.6"/>
<stop offset="0.644234"/>
<stop offset="0.841354" stop-color="white" stop-opacity="0.8"/>
<stop offset="1" stop-color="#666666" stop-opacity="0.9"/>
</linearGradient>
<linearGradient id="paint5_linear_4887_33157" x1="1109.77" y1="94.3628" x2="1115.67" y2="285.091" gradientUnits="userSpaceOnUse">
<stop/>
<stop offset="0.317303" stop-color="white" stop-opacity="0.6"/>
<stop offset="0.644234"/>
<stop offset="0.841354" stop-color="white" stop-opacity="0.8"/>
<stop offset="1" stop-color="#666666" stop-opacity="0.9"/>
</linearGradient>
<linearGradient id="paint6_linear_4887_33157" x1="1120.78" y1="93.3781" x2="1108.86" y2="284.499" gradientUnits="userSpaceOnUse">
<stop/>
<stop offset="0.317303" stop-color="white" stop-opacity="0.6"/>
<stop offset="0.644234"/>
<stop offset="0.841354" stop-color="white" stop-opacity="0.8"/>
<stop offset="1" stop-color="#666666" stop-opacity="0.9"/>
</linearGradient>
<linearGradient id="paint7_linear_4887_33157" x1="1131.81" y1="96.0822" x2="1101.82" y2="286.328" gradientUnits="userSpaceOnUse">
<stop/>
<stop offset="0.317303" stop-color="white" stop-opacity="0.6"/>
<stop offset="0.644234"/>
<stop offset="0.841354" stop-color="white" stop-opacity="0.8"/>
<stop offset="1" stop-color="#666666" stop-opacity="0.9"/>
</linearGradient>
<linearGradient id="paint8_linear_4887_33157" x1="1143.16" y1="96.5938" x2="1094.82" y2="284.578" gradientUnits="userSpaceOnUse">
<stop/>
<stop offset="0.317303" stop-color="white" stop-opacity="0.6"/>
<stop offset="0.644234"/>
<stop offset="0.841354" stop-color="white" stop-opacity="0.8"/>
<stop offset="1" stop-color="#666666" stop-opacity="0.9"/>
</linearGradient>
<linearGradient id="paint9_linear_4887_33157" x1="1154.39" y1="98.956" x2="1087.42" y2="283.128" gradientUnits="userSpaceOnUse">
<stop/>
<stop offset="0.317303" stop-color="white" stop-opacity="0.6"/>
<stop offset="0.644234"/>
<stop offset="0.841354" stop-color="white" stop-opacity="0.8"/>
<stop offset="1" stop-color="#666666" stop-opacity="0.9"/>
</linearGradient>
<linearGradient id="paint10_linear_4887_33157" x1="1165.22" y1="103.854" x2="1079.42" y2="282.462" gradientUnits="userSpaceOnUse">
<stop/>
<stop offset="0.317303" stop-color="white" stop-opacity="0.6"/>
<stop offset="0.644234"/>
<stop offset="0.841354" stop-color="white" stop-opacity="0.8"/>
<stop offset="1" stop-color="#666666" stop-opacity="0.9"/>
</linearGradient>
<linearGradient id="paint11_linear_4887_33157" x1="1171.63" y1="108.59" x2="1066.94" y2="279.653" gradientUnits="userSpaceOnUse">
<stop/>
<stop offset="0.317303" stop-color="white" stop-opacity="0.6"/>
<stop offset="0.644234"/>
<stop offset="0.841354" stop-color="white" stop-opacity="0.8"/>
<stop offset="1" stop-color="#666666" stop-opacity="0.9"/>
</linearGradient>
<linearGradient id="paint12_linear_4887_33157" x1="1180.87" y1="113.923" x2="1057.43" y2="275.232" gradientUnits="userSpaceOnUse">
<stop/>
<stop offset="0.317303" stop-color="white" stop-opacity="0.6"/>
<stop offset="0.644234"/>
<stop offset="0.841354" stop-color="white" stop-opacity="0.8"/>
<stop offset="1" stop-color="#666666" stop-opacity="0.9"/>
</linearGradient>
<linearGradient id="paint13_linear_4887_33157" x1="1188.56" y1="120.366" x2="1046.86" y2="269.507" gradientUnits="userSpaceOnUse">
<stop/>
<stop offset="0.317303" stop-color="white" stop-opacity="0.6"/>
<stop offset="0.644234"/>
<stop offset="0.841354" stop-color="white" stop-opacity="0.8"/>
<stop offset="1" stop-color="#666666" stop-opacity="0.9"/>
</linearGradient>
<linearGradient id="paint14_linear_4887_33157" x1="1197.76" y1="131.845" x2="1038.7" y2="266.262" gradientUnits="userSpaceOnUse">
<stop/>
<stop offset="0.317303" stop-color="white" stop-opacity="0.6"/>
<stop offset="0.644234"/>
<stop offset="0.841354" stop-color="white" stop-opacity="0.8"/>
<stop offset="1" stop-color="#666666" stop-opacity="0.9"/>
</linearGradient>
<linearGradient id="paint15_linear_4887_33157" x1="1204.8" y1="135.519" x2="1029.81" y2="252.618" gradientUnits="userSpaceOnUse">
<stop/>
<stop offset="0.317303" stop-color="white" stop-opacity="0.6"/>
<stop offset="0.644234"/>
<stop offset="0.841354" stop-color="white" stop-opacity="0.8"/>
<stop offset="1" stop-color="#666666" stop-opacity="0.9"/>
</linearGradient>
<linearGradient id="paint16_linear_4887_33157" x1="1207.96" y1="148.381" x2="1019.01" y2="245.673" gradientUnits="userSpaceOnUse">
<stop/>
<stop offset="0.317303" stop-color="white" stop-opacity="0.6"/>
<stop offset="0.644234"/>
<stop offset="0.841354" stop-color="white" stop-opacity="0.8"/>
<stop offset="1" stop-color="#666666" stop-opacity="0.9"/>
</linearGradient>
<linearGradient id="paint17_linear_4887_33157" x1="1211.38" y1="154.282" x2="1011.01" y2="229.557" gradientUnits="userSpaceOnUse">
<stop/>
<stop offset="0.317303" stop-color="white" stop-opacity="0.6"/>
<stop offset="0.644234"/>
<stop offset="0.841354" stop-color="white" stop-opacity="0.8"/>
<stop offset="1" stop-color="#666666" stop-opacity="0.9"/>
</linearGradient>
<linearGradient id="paint18_linear_4887_33157" x1="1213.45" y1="166.774" x2="1004.72" y2="218.273" gradientUnits="userSpaceOnUse">
<stop/>
<stop offset="0.317303" stop-color="white" stop-opacity="0.6"/>
<stop offset="0.644234"/>
<stop offset="0.841354" stop-color="white" stop-opacity="0.8"/>
<stop offset="1" stop-color="#666666" stop-opacity="0.9"/>
</linearGradient>
<linearGradient id="paint19_linear_4887_33157" x1="1217.82" y1="176.157" x2="1004.16" y2="202.726" gradientUnits="userSpaceOnUse">
<stop/>
<stop offset="0.317303" stop-color="white" stop-opacity="0.6"/>
<stop offset="0.644234"/>
<stop offset="0.841354" stop-color="white" stop-opacity="0.8"/>
<stop offset="1" stop-color="#666666" stop-opacity="0.9"/>
</linearGradient>
<clipPath id="clip0_4887_33157">
<rect width="1920" height="378" fill="white"/>
</clipPath>
</defs>
</svg>
