<svg width="25" height="21" viewBox="0 0 25 21" fill="none" xmlns="http://www.w3.org/2000/svg">
<path d="M0.0494189 5.29317C-0.0263659 4.41459 0.249969 3.54188 0.817632 2.86704C1.3853 2.1922 2.19779 1.77051 3.07637 1.69472L19.941 0.240009C20.8196 0.164225 21.6923 0.440559 22.3671 1.00822C23.042 1.57589 23.4637 2.38838 23.5395 3.26696L23.8512 6.88081C23.8719 7.12043 23.7965 7.35844 23.6417 7.54248C23.4869 7.72653 23.2653 7.84154 23.0257 7.86221C22.6263 7.89666 22.257 8.08834 21.999 8.39508C21.7409 8.70183 21.6153 9.09851 21.6498 9.49787C21.6842 9.89722 21.8759 10.2665 22.1826 10.5246C22.4894 10.7826 22.8861 10.9082 23.2854 10.8738C23.525 10.8531 23.7631 10.9284 23.9471 11.0833C24.1311 11.2381 24.2462 11.4597 24.2668 11.6993L24.5785 15.3131C24.6543 16.1917 24.378 17.0644 23.8103 17.7393C23.2427 18.4141 22.4302 18.8358 21.5516 18.9116L4.68695 20.3663C3.80836 20.4421 2.93566 20.1657 2.26082 19.5981C1.58598 19.0304 1.16428 18.2179 1.0885 17.3393L0.776775 13.7255C0.756106 13.4859 0.83147 13.2479 0.986288 13.0638C1.14111 12.8798 1.36269 12.7648 1.60231 12.7441C2.00166 12.7097 2.37098 12.518 2.62901 12.2112C2.88704 11.9045 3.01264 11.5078 2.97819 11.1084C2.94375 10.7091 2.75207 10.3398 2.44532 10.0817C2.13858 9.82371 1.74189 9.69811 1.34254 9.73255C1.10292 9.75322 0.864914 9.67786 0.680867 9.52304C0.49682 9.36822 0.381812 9.14663 0.361143 8.90702L0.0494189 5.29317ZM12.8018 5.40675C12.7811 5.16714 12.6661 4.94555 12.4821 4.79073C12.298 4.63591 12.06 4.56055 11.8204 4.58122C11.5808 4.60189 11.3592 4.7169 11.2044 4.90094C11.0496 5.08499 10.9742 5.323 10.9949 5.56261L11.0468 6.16492C11.0675 6.40454 11.1825 6.62612 11.3666 6.78094C11.5506 6.93576 11.7886 7.01112 12.0282 6.99045C12.2678 6.96979 12.4894 6.85478 12.6443 6.67073C12.7991 6.48668 12.8744 6.24867 12.8538 6.00906L12.8018 5.40675ZM13.1915 9.92407C13.1708 9.68445 13.0558 9.46287 12.8717 9.30805C12.6877 9.15323 12.4497 9.07787 12.2101 9.09854C11.9705 9.1192 11.7489 9.23421 11.5941 9.41826C11.4392 9.60231 11.3639 9.84032 11.3845 10.0799L11.4365 10.6822C11.4572 10.9219 11.5722 11.1434 11.7562 11.2983C11.9403 11.4531 12.1783 11.5284 12.4179 11.5078C12.6575 11.4871 12.8791 11.3721 13.0339 11.188C13.1887 11.004 13.2641 10.766 13.2434 10.5264L13.1915 9.92407ZM13.5811 14.4414C13.5605 14.2018 13.4454 13.9802 13.2614 13.8254C13.0774 13.6705 12.8393 13.5952 12.5997 13.6159C12.3601 13.6365 12.1385 13.7515 11.9837 13.9356C11.8289 14.1196 11.7535 14.3576 11.7742 14.5972L11.8262 15.1996C11.8468 15.4392 11.9618 15.6608 12.1459 15.8156C12.3299 15.9704 12.5679 16.0458 12.8075 16.0251C13.0472 16.0044 13.2687 15.8894 13.4236 15.7054C13.5784 15.5213 13.6537 15.2833 13.6331 15.0437L13.5811 14.4414Z" fill="white"/>
</svg>
