<svg width="418" height="218" viewBox="0 0 418 218" fill="none" xmlns="http://www.w3.org/2000/svg">
<g clip-path="url(#clip0_6559_46910)">
<g clip-path="url(#clip1_6559_46910)">
<g opacity="0.5">
<path opacity="0.0526316" d="M622.671 97.8594C615.395 82.5348 586.19 51.1251 527.581 48.0831C454.32 44.2806 411.541 85.4698 343.08 91.1569C292.55 95.3543 164.451 83.963 107.114 29.2083" stroke="url(#paint0_linear_6559_46910)" stroke-opacity="0.6" stroke-width="2" stroke-dasharray="6 6"/>
<path opacity="0.105263" d="M621.758 119.223C616.383 103.603 590.922 70.349 532.071 62.2985C458.507 52.2353 409.94 88.8226 340.002 88.4577C288.382 88.1885 160.366 65.9536 109.485 7.4277" stroke="url(#paint1_linear_6559_46910)" stroke-opacity="0.6" stroke-width="2" stroke-dasharray="6 6"/>
<path opacity="0.157895" d="M617.262 140.746C613.849 125.001 592.409 90.2673 533.961 77.2965C460.9 61.0829 407.078 92.6674 336.428 86.2546C284.283 81.5215 157.754 48.6867 113.886 -12.9691" stroke="url(#paint2_linear_6559_46910)" stroke-opacity="0.6" stroke-width="2" stroke-dasharray="6 6"/>
<path opacity="0.210526" d="M610.384 160.62C608.969 144.923 591.787 109.09 534.382 91.3406C462.625 69.1543 404.136 95.3899 333.549 82.9995C281.451 73.8545 157.794 30.7795 121.42 -33.3307" stroke="url(#paint3_linear_6559_46910)" stroke-opacity="0.6" stroke-width="2" stroke-dasharray="6 6"/>
<path opacity="0.263158" d="M600.597 179.761C601.195 164.283 588.459 127.743 532.725 105.41C463.058 77.4945 400.544 98.0937 330.793 79.8615C279.312 66.4047 159.883 13.5615 131.402 -52.3008" stroke="url(#paint4_linear_6559_46910)" stroke-opacity="0.6" stroke-width="2" stroke-dasharray="6 6"/>
<path opacity="0.315789" d="M588.504 197.331C591.11 182.242 582.958 145.396 529.507 118.724C462.693 85.3842 396.839 100.121 328.688 76.247C278.389 58.6259 164.495 -3.40655 144.218 -70.2992" stroke="url(#paint5_linear_6559_46910)" stroke-opacity="0.6" stroke-width="2" stroke-dasharray="6 6"/>
<path opacity="0.368421" d="M573.637 214.207C578.221 199.673 574.744 162.925 524.161 132.206C460.932 93.8075 392.459 102.521 326.656 73.2663C278.088 51.674 170.978 -18.8681 159.128 -86.0583" stroke="url(#paint6_linear_6559_46910)" stroke-opacity="0.6" stroke-width="2" stroke-dasharray="6 6"/>
<path opacity="0.421053" d="M557.117 228.625C563.63 214.804 564.866 178.556 517.705 144.127C458.754 101.091 388.412 103.686 325.677 69.3706C279.374 44.0435 180.221 -34.2354 176.928 -100.987" stroke="url(#paint7_linear_6559_46910)" stroke-opacity="0.6" stroke-width="2" stroke-dasharray="6 6"/>
<path opacity="0.473684" d="M538.471 241.539C546.841 228.584 552.775 193.233 509.554 155.471C455.526 108.268 384.086 104.716 325.107 65.7167C281.575 36.9324 191.466 -48.2255 196.766 -113.807" stroke="url(#paint8_linear_6559_46910)" stroke-opacity="0.6" stroke-width="2" stroke-dasharray="6 6"/>
<path opacity="0.526316" d="M517.719 252.989C527.854 241.04 538.423 206.974 499.613 166.292C451.102 115.441 379.346 105.78 324.768 62.5239C284.486 30.5978 204.407 -60.5063 218.242 -124.199" stroke="url(#paint9_linear_6559_46910)" stroke-opacity="0.6" stroke-width="2" stroke-dasharray="6 6"/>
<path opacity="0.578947" d="M494.206 261.483C505.996 250.672 521.082 218.263 487.111 175.108C444.647 121.165 373.362 105.501 323.784 58.4623C287.191 23.7442 218.02 -72.3078 240.238 -133.415" stroke="url(#paint10_linear_6559_46910)" stroke-opacity="0.6" stroke-width="2" stroke-dasharray="6 6"/>
<path opacity="0.631579" d="M470.46 268.275C483.775 258.721 503.214 228.325 474.453 183.169C438.501 126.725 368.468 105.23 324.433 54.9239C291.931 17.7942 234.426 -82.1535 264.784 -140.004" stroke="url(#paint11_linear_6559_46910)" stroke-opacity="0.6" stroke-width="2" stroke-dasharray="6 6"/>
<path opacity="0.684211" d="M445.269 272.826C459.963 264.634 483.542 236.583 460.306 189.921C431.261 131.594 363.246 104.504 325.236 51.4816C297.182 12.347 251.973 -90.4011 290.138 -144.362" stroke="url(#paint12_linear_6559_46910)" stroke-opacity="0.6" stroke-width="2" stroke-dasharray="6 6"/>
<path opacity="0.736842" d="M419.344 276.667C435.257 269.926 462.718 244.529 445.261 196.872C423.44 137.301 358.191 104.912 326.622 49.7544C303.322 9.04368 270.905 -95.3793 316.458 -144.86" stroke="url(#paint13_linear_6559_46910)" stroke-opacity="0.6" stroke-width="2" stroke-dasharray="6 6"/>
<path opacity="0.789474" d="M393.667 275.628C410.623 270.412 441.665 247.946 430.179 199.816C415.822 139.655 354.051 102.322 329.27 45.6329C310.98 3.79217 291.709 -101.162 344.153 -145.619" stroke="url(#paint14_linear_6559_46910)" stroke-opacity="0.6" stroke-width="2" stroke-dasharray="6 6"/>
<path opacity="0.842105" d="M365.498 274.289C383.313 270.654 417.595 251.366 412.206 203.291C405.47 143.198 347.855 101.33 330.134 43.7311C317.054 1.21871 311.14 -103.116 369.899 -142.063" stroke="url(#paint15_linear_6559_46910)" stroke-opacity="0.6" stroke-width="2" stroke-dasharray="6 6"/>
<path opacity="0.894737" d="M338.823 268.768C357.3 266.755 394.447 250.856 395.214 203.362C396.173 143.996 343.345 98.0523 332.877 40.1743C325.15 -2.54395 332.659 -105.116 397.089 -138.127" stroke="url(#paint16_linear_6559_46910)" stroke-opacity="0.6" stroke-width="2" stroke-dasharray="6 6"/>
<path opacity="0.947368" d="M311.468 262.74C330.406 262.371 370.011 250.035 376.925 203.643C385.568 145.653 338.107 96.1372 335.006 38.6144C332.718 -3.84167 353.566 -103.528 422.962 -130.24" stroke="url(#paint17_linear_6559_46910)" stroke-opacity="0.6" stroke-width="2" stroke-dasharray="6 6"/>
<path d="M286.295 254.135C305.486 255.414 347.115 246.775 360.101 201.994C376.334 146.016 334.758 93.47 339.059 36.9327C342.234 -4.79612 376.195 -100.504 449.796 -120.625" stroke="url(#paint18_linear_6559_46910)" stroke-opacity="0.6" stroke-width="2" stroke-dasharray="6 6"/>
</g>
</g>
<g filter="url(#filter0_f_6559_46910)">
<circle cx="406" cy="-176" r="271" fill="#FDB633" fill-opacity="0.2"/>
</g>
<g filter="url(#filter1_f_6559_46910)">
<circle cx="147" cy="-176" r="271" fill="#FDB633" fill-opacity="0.2"/>
</g>
</g>
<defs>
<filter id="filter0_f_6559_46910" x="-65" y="-647" width="942" height="942" filterUnits="userSpaceOnUse" color-interpolation-filters="sRGB">
<feFlood flood-opacity="0" result="BackgroundImageFix"/>
<feBlend mode="normal" in="SourceGraphic" in2="BackgroundImageFix" result="shape"/>
<feGaussianBlur stdDeviation="100" result="effect1_foregroundBlur_6559_46910"/>
</filter>
<filter id="filter1_f_6559_46910" x="-324" y="-647" width="942" height="942" filterUnits="userSpaceOnUse" color-interpolation-filters="sRGB">
<feFlood flood-opacity="0" result="BackgroundImageFix"/>
<feBlend mode="normal" in="SourceGraphic" in2="BackgroundImageFix" result="shape"/>
<feGaussianBlur stdDeviation="100" result="effect1_foregroundBlur_6559_46910"/>
</filter>
<linearGradient id="paint0_linear_6559_46910" x1="362.875" y1="34.872" x2="357.982" y2="96.1802" gradientUnits="userSpaceOnUse">
<stop/>
<stop offset="0.317303" stop-color="white" stop-opacity="0.6"/>
<stop offset="0.644234"/>
<stop offset="0.841354" stop-color="white" stop-opacity="0.8"/>
<stop offset="1" stop-color="#666666" stop-opacity="0.9"/>
</linearGradient>
<linearGradient id="paint1_linear_6559_46910" x1="367.287" y1="35.1138" x2="357.406" y2="95.1539" gradientUnits="userSpaceOnUse">
<stop/>
<stop offset="0.317303" stop-color="white" stop-opacity="0.6"/>
<stop offset="0.644234"/>
<stop offset="0.841354" stop-color="white" stop-opacity="0.8"/>
<stop offset="1" stop-color="#666666" stop-opacity="0.9"/>
</linearGradient>
<linearGradient id="paint2_linear_6559_46910" x1="370.904" y1="36.436" x2="356.232" y2="95.0816" gradientUnits="userSpaceOnUse">
<stop/>
<stop offset="0.317303" stop-color="white" stop-opacity="0.6"/>
<stop offset="0.644234"/>
<stop offset="0.841354" stop-color="white" stop-opacity="0.8"/>
<stop offset="1" stop-color="#666666" stop-opacity="0.9"/>
</linearGradient>
<linearGradient id="paint3_linear_6559_46910" x1="374.839" y1="37.2521" x2="355.493" y2="94.3871" gradientUnits="userSpaceOnUse">
<stop/>
<stop offset="0.317303" stop-color="white" stop-opacity="0.6"/>
<stop offset="0.644234"/>
<stop offset="0.841354" stop-color="white" stop-opacity="0.8"/>
<stop offset="1" stop-color="#666666" stop-opacity="0.9"/>
</linearGradient>
<linearGradient id="paint4_linear_6559_46910" x1="378.444" y1="38.6865" x2="354.469" y2="94.182" gradientUnits="userSpaceOnUse">
<stop/>
<stop offset="0.317303" stop-color="white" stop-opacity="0.6"/>
<stop offset="0.644234"/>
<stop offset="0.841354" stop-color="white" stop-opacity="0.8"/>
<stop offset="1" stop-color="#666666" stop-opacity="0.9"/>
</linearGradient>
<linearGradient id="paint5_linear_6559_46910" x1="382.178" y1="40.0956" x2="353.55" y2="93.788" gradientUnits="userSpaceOnUse">
<stop/>
<stop offset="0.317303" stop-color="white" stop-opacity="0.6"/>
<stop offset="0.644234"/>
<stop offset="0.841354" stop-color="white" stop-opacity="0.8"/>
<stop offset="1" stop-color="#666666" stop-opacity="0.9"/>
</linearGradient>
<linearGradient id="paint6_linear_6559_46910" x1="385.398" y1="42.5345" x2="352.038" y2="94.2037" gradientUnits="userSpaceOnUse">
<stop/>
<stop offset="0.317303" stop-color="white" stop-opacity="0.6"/>
<stop offset="0.644234"/>
<stop offset="0.841354" stop-color="white" stop-opacity="0.8"/>
<stop offset="1" stop-color="#666666" stop-opacity="0.9"/>
</linearGradient>
<linearGradient id="paint7_linear_6559_46910" x1="389.029" y1="44.395" x2="350.814" y2="93.7424" gradientUnits="userSpaceOnUse">
<stop/>
<stop offset="0.317303" stop-color="white" stop-opacity="0.6"/>
<stop offset="0.644234"/>
<stop offset="0.841354" stop-color="white" stop-opacity="0.8"/>
<stop offset="1" stop-color="#666666" stop-opacity="0.9"/>
</linearGradient>
<linearGradient id="paint8_linear_6559_46910" x1="392.374" y1="46.7711" x2="349.16" y2="93.3963" gradientUnits="userSpaceOnUse">
<stop/>
<stop offset="0.317303" stop-color="white" stop-opacity="0.6"/>
<stop offset="0.644234"/>
<stop offset="0.841354" stop-color="white" stop-opacity="0.8"/>
<stop offset="1" stop-color="#666666" stop-opacity="0.9"/>
</linearGradient>
<linearGradient id="paint9_linear_6559_46910" x1="395.214" y1="49.8158" x2="346.861" y2="93.1945" gradientUnits="userSpaceOnUse">
<stop/>
<stop offset="0.317303" stop-color="white" stop-opacity="0.6"/>
<stop offset="0.644234"/>
<stop offset="0.841354" stop-color="white" stop-opacity="0.8"/>
<stop offset="1" stop-color="#666666" stop-opacity="0.9"/>
</linearGradient>
<linearGradient id="paint10_linear_6559_46910" x1="396.636" y1="52.131" x2="343.047" y2="91.5949" gradientUnits="userSpaceOnUse">
<stop/>
<stop offset="0.317303" stop-color="white" stop-opacity="0.6"/>
<stop offset="0.644234"/>
<stop offset="0.841354" stop-color="white" stop-opacity="0.8"/>
<stop offset="1" stop-color="#666666" stop-opacity="0.9"/>
</linearGradient>
<linearGradient id="paint11_linear_6559_46910" x1="398.893" y1="55.0387" x2="340.073" y2="89.7647" gradientUnits="userSpaceOnUse">
<stop/>
<stop offset="0.317303" stop-color="white" stop-opacity="0.6"/>
<stop offset="0.644234"/>
<stop offset="0.841354" stop-color="white" stop-opacity="0.8"/>
<stop offset="1" stop-color="#666666" stop-opacity="0.9"/>
</linearGradient>
<linearGradient id="paint12_linear_6559_46910" x1="400.489" y1="58.0413" x2="336.606" y2="87.0568" gradientUnits="userSpaceOnUse">
<stop/>
<stop offset="0.317303" stop-color="white" stop-opacity="0.6"/>
<stop offset="0.644234"/>
<stop offset="0.841354" stop-color="white" stop-opacity="0.8"/>
<stop offset="1" stop-color="#666666" stop-opacity="0.9"/>
</linearGradient>
<linearGradient id="paint13_linear_6559_46910" x1="401.843" y1="62.687" x2="333.31" y2="84.9036" gradientUnits="userSpaceOnUse">
<stop/>
<stop offset="0.317303" stop-color="white" stop-opacity="0.6"/>
<stop offset="0.644234"/>
<stop offset="0.841354" stop-color="white" stop-opacity="0.8"/>
<stop offset="1" stop-color="#666666" stop-opacity="0.9"/>
</linearGradient>
<linearGradient id="paint14_linear_6559_46910" x1="403.635" y1="64.7969" x2="331.19" y2="79.0825" gradientUnits="userSpaceOnUse">
<stop/>
<stop offset="0.317303" stop-color="white" stop-opacity="0.6"/>
<stop offset="0.644234"/>
<stop offset="0.841354" stop-color="white" stop-opacity="0.8"/>
<stop offset="1" stop-color="#666666" stop-opacity="0.9"/>
</linearGradient>
<linearGradient id="paint15_linear_6559_46910" x1="402.827" y1="68.9164" x2="327.581" y2="74.2137" gradientUnits="userSpaceOnUse">
<stop/>
<stop offset="0.317303" stop-color="white" stop-opacity="0.6"/>
<stop offset="0.644234"/>
<stop offset="0.841354" stop-color="white" stop-opacity="0.8"/>
<stop offset="1" stop-color="#666666" stop-opacity="0.9"/>
</linearGradient>
<linearGradient id="paint16_linear_6559_46910" x1="403.103" y1="71.105" x2="326.544" y2="66.586" gradientUnits="userSpaceOnUse">
<stop/>
<stop offset="0.317303" stop-color="white" stop-opacity="0.6"/>
<stop offset="0.644234"/>
<stop offset="0.841354" stop-color="white" stop-opacity="0.8"/>
<stop offset="1" stop-color="#666666" stop-opacity="0.9"/>
</linearGradient>
<linearGradient id="paint17_linear_6559_46910" x1="401.996" y1="74.9517" x2="325.913" y2="60.18" gradientUnits="userSpaceOnUse">
<stop/>
<stop offset="0.317303" stop-color="white" stop-opacity="0.6"/>
<stop offset="0.644234"/>
<stop offset="0.841354" stop-color="white" stop-opacity="0.8"/>
<stop offset="1" stop-color="#666666" stop-opacity="0.9"/>
</linearGradient>
<linearGradient id="paint18_linear_6559_46910" x1="402.078" y1="78.2783" x2="328.404" y2="53.3325" gradientUnits="userSpaceOnUse">
<stop/>
<stop offset="0.317303" stop-color="white" stop-opacity="0.6"/>
<stop offset="0.644234"/>
<stop offset="0.841354" stop-color="white" stop-opacity="0.8"/>
<stop offset="1" stop-color="#666666" stop-opacity="0.9"/>
</linearGradient>
<clipPath id="clip0_6559_46910">
<rect width="418" height="218" rx="16" fill="white"/>
</clipPath>
<clipPath id="clip1_6559_46910">
<rect width="478" height="412" fill="white" transform="translate(48 -215)"/>
</clipPath>
</defs>
</svg>
