<svg width="44" height="44" viewBox="0 0 44 44" fill="none" xmlns="http://www.w3.org/2000/svg">
<path d="M22 44C9.8516 44 0 34.1484 0 22C0 9.8516 9.8516 0 22 0C34.1484 0 44 9.8516 44 22C44 34.1484 34.1484 44 22 44Z" fill="#FF0000"/>
<path d="M36.0006 14.9195C35.6662 13.6523 34.6762 12.6579 33.4178 12.3191C31.1386 11.7031 22.0042 11.7031 22.0042 11.7031C22.0042 11.7031 12.8654 11.7031 10.5906 12.3191C9.33225 12.6579 8.34225 13.6523 8.00785 14.9195C7.39185 17.2119 7.39185 21.9991 7.39185 21.9991C7.39185 21.9991 7.39185 26.7863 8.00345 29.0787C8.33785 30.3459 9.32785 31.3403 10.5862 31.6791C12.8654 32.2951 21.9998 32.2951 21.9998 32.2951C21.9998 32.2951 31.1386 32.2951 33.4134 31.6791C34.6718 31.3403 35.6618 30.3459 35.9962 29.0787C36.6078 26.7863 36.6078 21.9991 36.6078 21.9991C36.6078 21.9991 36.6078 17.2119 36.0006 14.9195ZM19.0122 26.3419V17.6563L26.6462 21.9991L19.0122 26.3419Z" fill="white"/>
</svg>
